<?xml version="1.0" encoding="UTF-8" standalone="no"?>
<!DOCTYPE svg PUBLIC "-//W3C//DTD SVG 1.1//EN"
 "http://www.w3.org/Graphics/SVG/1.1/DTD/svg11.dtd">
<!-- Generated by graphviz version 2.40.1 (20161225.0304)
 -->
<!-- Title: dependencies Pages: 1 -->
<svg width="504pt" height="284pt"
 viewBox="0.00 0.00 504.00 284.00" xmlns="http://www.w3.org/2000/svg" xmlns:xlink="http://www.w3.org/1999/xlink">
<g id="graph0" class="graph" transform="scale(1 1) rotate(0) translate(4 280)">
<title>dependencies</title>
<polygon fill="#ffffff" stroke="transparent" points="-4,4 -4,-280 500,-280 500,4 -4,4"/>
<text text-anchor="start" x="227.0091" y="-42.4" font-family="sans-serif" font-weight="bold" font-size="14.00" fill="#000000">Legend</text>
<polygon fill="#ffffb3" stroke="transparent" points="14,-10 14,-30 34,-30 34,-10 14,-10"/>
<text text-anchor="start" x="37.629" y="-15.4" font-family="sans-serif" font-size="14.00" fill="#000000"> &#160;Declarations</text>
<polygon fill="#8dd3c7" stroke="transparent" points="127,-10 127,-30 147,-30 147,-10 127,-10"/>
<text text-anchor="start" x="150.7251" y="-15.4" font-family="sans-serif" font-size="14.00" fill="#000000"> &#160;Module</text>
<polygon fill="#80b1d3" stroke="transparent" points="213,-10 213,-30 233,-30 233,-10 213,-10"/>
<text text-anchor="start" x="236.7812" y="-15.4" font-family="sans-serif" font-size="14.00" fill="#000000"> &#160;Bootstrap</text>
<polygon fill="#fdb462" stroke="transparent" points="310,-10 310,-30 330,-30 330,-10 310,-10"/>
<text text-anchor="start" x="333.6732" y="-15.4" font-family="sans-serif" font-size="14.00" fill="#000000"> &#160;Providers</text>
<polygon fill="#fb8072" stroke="transparent" points="406,-10 406,-30 426,-30 426,-10 406,-10"/>
<text text-anchor="start" x="429.7258" y="-15.4" font-family="sans-serif" font-size="14.00" fill="#000000"> &#160;Exports</text>
<g id="clust1" class="cluster">
<title>cluster_CoreModule</title>
<polygon fill="none" stroke="#000000" stroke-dasharray="1,5" points="129.5,-70 129.5,-268 366.5,-268 366.5,-70 129.5,-70"/>
</g>
<g id="clust3" class="cluster">
<title>cluster_CoreModule_imports</title>
<polygon fill="none" stroke="#000000" points="137.5,-78 137.5,-130 358.5,-130 358.5,-78 137.5,-78"/>
</g>
<g id="clust4" class="cluster">
<title>cluster_CoreModule_exports</title>
<polygon fill="none" stroke="#000000" points="188.5,-208 188.5,-260 306.5,-260 306.5,-208 188.5,-208"/>
</g>
<!-- AuthModule -->
<g id="node1" class="node">
<title>AuthModule</title>
<polygon fill="#8dd3c7" stroke="#000000" points="350.0482,-122 347.0482,-126 326.0482,-126 323.0482,-122 262.9518,-122 262.9518,-86 350.0482,-86 350.0482,-122"/>
<text text-anchor="middle" x="306.5" y="-99.8" font-family="Times,serif" font-size="14.00" fill="#000000">AuthModule</text>
</g>
<!-- CoreModule -->
<g id="node3" class="node">
<title>CoreModule</title>
<polygon fill="#8dd3c7" stroke="#000000" points="290.7619,-187 287.7619,-191 266.7619,-191 263.7619,-187 204.2381,-187 204.2381,-151 290.7619,-151 290.7619,-187"/>
<text text-anchor="middle" x="247.5" y="-164.8" font-family="Times,serif" font-size="14.00" fill="#000000">CoreModule</text>
</g>
<!-- AuthModule&#45;&gt;CoreModule -->
<g id="edge1" class="edge">
<title>AuthModule&#45;&gt;CoreModule</title>
<path fill="none" stroke="#000000" d="M276.8037,-122.1061C276.8037,-122.1061 276.8037,-140.991 276.8037,-140.991"/>
<polygon fill="#000000" stroke="#000000" points="273.3037,-140.9909 276.8037,-150.991 280.3037,-140.991 273.3037,-140.9909"/>
</g>
<!-- LoaderModule -->
<g id="node2" class="node">
<title>LoaderModule</title>
<polygon fill="#8dd3c7" stroke="#000000" points="245.1924,-122 242.1924,-126 221.1924,-126 218.1924,-122 145.8076,-122 145.8076,-86 245.1924,-86 245.1924,-122"/>
<text text-anchor="middle" x="195.5" y="-99.8" font-family="Times,serif" font-size="14.00" fill="#000000">LoaderModule</text>
</g>
<!-- LoaderModule&#45;&gt;CoreModule -->
<g id="edge2" class="edge">
<title>LoaderModule&#45;&gt;CoreModule</title>
<path fill="none" stroke="#000000" d="M224.6077,-122.1061C224.6077,-122.1061 224.6077,-140.991 224.6077,-140.991"/>
<polygon fill="#000000" stroke="#000000" points="221.1077,-140.9909 224.6077,-150.991 228.1077,-140.991 221.1077,-140.9909"/>
</g>
<!-- LoaderModule  -->
<g id="node4" class="node">
<title>LoaderModule </title>
<polygon fill="#fb8072" stroke="#000000" points="298.6927,-252 196.3073,-252 196.3073,-216 298.6927,-216 298.6927,-252"/>
<text text-anchor="middle" x="247.5" y="-229.8" font-family="Times,serif" font-size="14.00" fill="#000000">LoaderModule </text>
</g>
<!-- CoreModule&#45;&gt;LoaderModule  -->
<g id="edge3" class="edge">
<title>CoreModule&#45;&gt;LoaderModule </title>
<path fill="none" stroke="#000000" stroke-dasharray="5,2" d="M247.5,-187.1061C247.5,-187.1061 247.5,-205.991 247.5,-205.991"/>
<polygon fill="#000000" stroke="#000000" points="244.0001,-205.9909 247.5,-215.991 251.0001,-205.991 244.0001,-205.9909"/>
</g>
</g>
</svg>
