<svg xmlns="http://www.w3.org/2000/svg" width="24" height="19" viewBox="0 0 24 19">
    <g fill="#219CDC" fill-rule="nonzero">
        <path d="M0 5.211h5.211V0H0v5.211zm1.38-3.83h2.451v2.45h-2.45v-2.45zM6.868 0v5.211h16.684V0H6.868zm15.304 3.831H8.248v-2.45h13.924v2.45zM0 11.974h5.211V6.762H0v5.212zm1.38-3.832h2.451v2.452h-2.45V8.142zM6.868 11.974h16.684V6.762H6.868v5.212zm1.38-3.832h13.924v2.452H8.248V8.142zM0 18.736h5.211v-5.211H0v5.211zm1.38-3.831h2.451v2.451h-2.45v-2.451zM6.868 18.736h16.684v-5.211H6.868v5.211zm1.38-3.831h13.924v2.451H8.248v-2.451z"/>
    </g>
</svg>
