<?xml version="1.0" encoding="UTF-8" standalone="no"?>
<!DOCTYPE svg PUBLIC "-//W3C//DTD SVG 1.1//EN"
 "http://www.w3.org/Graphics/SVG/1.1/DTD/svg11.dtd">
<!-- Generated by graphviz version 2.40.1 (20161225.0304)
 -->
<!-- Title: dependencies Pages: 1 -->
<svg width="721pt" height="211pt"
 viewBox="0.00 0.00 721.00 211.00" xmlns="http://www.w3.org/2000/svg" xmlns:xlink="http://www.w3.org/1999/xlink">
<g id="graph0" class="graph" transform="scale(1 1) rotate(0) translate(4 207)">
<title>dependencies</title>
<polygon fill="#ffffff" stroke="transparent" points="-4,4 -4,-207 717,-207 717,4 -4,4"/>
<text text-anchor="start" x="335.5091" y="-42.4" font-family="sans-serif" font-weight="bold" font-size="14.00" fill="#000000">Legend</text>
<polygon fill="#ffffb3" stroke="transparent" points="122.5,-10 122.5,-30 142.5,-30 142.5,-10 122.5,-10"/>
<text text-anchor="start" x="146.129" y="-15.4" font-family="sans-serif" font-size="14.00" fill="#000000"> &#160;Declarations</text>
<polygon fill="#8dd3c7" stroke="transparent" points="235.5,-10 235.5,-30 255.5,-30 255.5,-10 235.5,-10"/>
<text text-anchor="start" x="259.2251" y="-15.4" font-family="sans-serif" font-size="14.00" fill="#000000"> &#160;Module</text>
<polygon fill="#80b1d3" stroke="transparent" points="321.5,-10 321.5,-30 341.5,-30 341.5,-10 321.5,-10"/>
<text text-anchor="start" x="345.2812" y="-15.4" font-family="sans-serif" font-size="14.00" fill="#000000"> &#160;Bootstrap</text>
<polygon fill="#fdb462" stroke="transparent" points="418.5,-10 418.5,-30 438.5,-30 438.5,-10 418.5,-10"/>
<text text-anchor="start" x="442.1732" y="-15.4" font-family="sans-serif" font-size="14.00" fill="#000000"> &#160;Providers</text>
<polygon fill="#fb8072" stroke="transparent" points="514.5,-10 514.5,-30 534.5,-30 534.5,-10 514.5,-10"/>
<text text-anchor="start" x="538.2258" y="-15.4" font-family="sans-serif" font-size="14.00" fill="#000000"> &#160;Exports</text>
<g id="clust1" class="cluster">
<title>cluster_ServicesModule</title>
<polygon fill="none" stroke="#000000" stroke-dasharray="1,5" points="8,-70 8,-195 705,-195 705,-70 8,-70"/>
</g>
<g id="clust6" class="cluster">
<title>cluster_ServicesModule_providers</title>
<polygon fill="none" stroke="#000000" points="16,-78 16,-130 697,-130 697,-78 16,-78"/>
</g>
<!-- ApiService -->
<g id="node1" class="node">
<title>ApiService</title>
<ellipse fill="#fdb462" stroke="#000000" cx="635" cy="-104" rx="54.4508" ry="18"/>
<text text-anchor="middle" x="635" y="-99.8" font-family="Times,serif" font-size="14.00" fill="#000000">ApiService</text>
</g>
<!-- ServicesModule -->
<g id="node5" class="node">
<title>ServicesModule</title>
<polygon fill="#8dd3c7" stroke="#000000" points="414.472,-187 411.472,-191 390.472,-191 387.472,-187 307.528,-187 307.528,-151 414.472,-151 414.472,-187"/>
<text text-anchor="middle" x="361" y="-164.8" font-family="Times,serif" font-size="14.00" fill="#000000">ServicesModule</text>
</g>
<!-- ApiService&#45;&gt;ServicesModule -->
<g id="edge1" class="edge">
<title>ApiService&#45;&gt;ServicesModule</title>
<path fill="none" stroke="#000000" d="M635,-122.1061C635,-141.3391 635,-169 635,-169 635,-169 424.4804,-169 424.4804,-169"/>
<polygon fill="#000000" stroke="#000000" points="424.4804,-165.5001 414.4804,-169 424.4804,-172.5001 424.4804,-165.5001"/>
</g>
<!-- FormsValidatorService -->
<g id="node2" class="node">
<title>FormsValidatorService</title>
<ellipse fill="#fdb462" stroke="#000000" cx="461" cy="-104" rx="101.2776" ry="18"/>
<text text-anchor="middle" x="461" y="-99.8" font-family="Times,serif" font-size="14.00" fill="#000000">FormsValidatorService</text>
</g>
<!-- FormsValidatorService&#45;&gt;ServicesModule -->
<g id="edge2" class="edge">
<title>FormsValidatorService&#45;&gt;ServicesModule</title>
<path fill="none" stroke="#000000" d="M387.1737,-116.5327C387.1737,-116.5327 387.1737,-140.8507 387.1737,-140.8507"/>
<polygon fill="#000000" stroke="#000000" points="383.6738,-140.8506 387.1737,-150.8507 390.6738,-140.8507 383.6738,-140.8506"/>
</g>
<!-- HttpClientService -->
<g id="node3" class="node">
<title>HttpClientService</title>
<ellipse fill="#fdb462" stroke="#000000" cx="261" cy="-104" rx="80.5316" ry="18"/>
<text text-anchor="middle" x="261" y="-99.8" font-family="Times,serif" font-size="14.00" fill="#000000">HttpClientService</text>
</g>
<!-- HttpClientService&#45;&gt;ServicesModule -->
<g id="edge3" class="edge">
<title>HttpClientService&#45;&gt;ServicesModule</title>
<path fill="none" stroke="#000000" d="M324.6397,-115.3221C324.6397,-115.3221 324.6397,-140.9424 324.6397,-140.9424"/>
<polygon fill="#000000" stroke="#000000" points="321.1398,-140.9424 324.6397,-150.9424 328.1398,-140.9425 321.1398,-140.9424"/>
</g>
<!-- ToasterService -->
<g id="node4" class="node">
<title>ToasterService</title>
<ellipse fill="#fdb462" stroke="#000000" cx="93" cy="-104" rx="68.8946" ry="18"/>
<text text-anchor="middle" x="93" y="-99.8" font-family="Times,serif" font-size="14.00" fill="#000000">ToasterService</text>
</g>
<!-- ToasterService&#45;&gt;ServicesModule -->
<g id="edge4" class="edge">
<title>ToasterService&#45;&gt;ServicesModule</title>
<path fill="none" stroke="#000000" d="M93,-122.1061C93,-141.3391 93,-169 93,-169 93,-169 297.4103,-169 297.4103,-169"/>
<polygon fill="#000000" stroke="#000000" points="297.4104,-172.5001 307.4103,-169 297.4103,-165.5001 297.4104,-172.5001"/>
</g>
</g>
</svg>
