<?xml version="1.0" encoding="UTF-8" standalone="no"?>
<!DOCTYPE svg PUBLIC "-//W3C//DTD SVG 1.1//EN"
 "http://www.w3.org/Graphics/SVG/1.1/DTD/svg11.dtd">
<!-- Generated by graphviz version 2.40.1 (20161225.0304)
 -->
<!-- Title: dependencies Pages: 1 -->
<svg width="573pt" height="211pt"
 viewBox="0.00 0.00 573.00 211.00" xmlns="http://www.w3.org/2000/svg" xmlns:xlink="http://www.w3.org/1999/xlink">
<g id="graph0" class="graph" transform="scale(1 1) rotate(0) translate(4 207)">
<title>dependencies</title>
<polygon fill="#ffffff" stroke="transparent" points="-4,4 -4,-207 569,-207 569,4 -4,4"/>
<text text-anchor="start" x="261.5091" y="-42.4" font-family="sans-serif" font-weight="bold" font-size="14.00" fill="#000000">Legend</text>
<polygon fill="#ffffb3" stroke="transparent" points="48.5,-10 48.5,-30 68.5,-30 68.5,-10 48.5,-10"/>
<text text-anchor="start" x="72.129" y="-15.4" font-family="sans-serif" font-size="14.00" fill="#000000"> &#160;Declarations</text>
<polygon fill="#8dd3c7" stroke="transparent" points="161.5,-10 161.5,-30 181.5,-30 181.5,-10 161.5,-10"/>
<text text-anchor="start" x="185.2251" y="-15.4" font-family="sans-serif" font-size="14.00" fill="#000000"> &#160;Module</text>
<polygon fill="#80b1d3" stroke="transparent" points="247.5,-10 247.5,-30 267.5,-30 267.5,-10 247.5,-10"/>
<text text-anchor="start" x="271.2812" y="-15.4" font-family="sans-serif" font-size="14.00" fill="#000000"> &#160;Bootstrap</text>
<polygon fill="#fdb462" stroke="transparent" points="344.5,-10 344.5,-30 364.5,-30 364.5,-10 344.5,-10"/>
<text text-anchor="start" x="368.1732" y="-15.4" font-family="sans-serif" font-size="14.00" fill="#000000"> &#160;Providers</text>
<polygon fill="#fb8072" stroke="transparent" points="440.5,-10 440.5,-30 460.5,-30 460.5,-10 440.5,-10"/>
<text text-anchor="start" x="464.2258" y="-15.4" font-family="sans-serif" font-size="14.00" fill="#000000"> &#160;Exports</text>
<g id="clust1" class="cluster">
<title>cluster_DeudaExigibleModule</title>
<polygon fill="none" stroke="#000000" stroke-dasharray="1,5" points="8,-70 8,-195 557,-195 557,-70 8,-70"/>
</g>
<g id="clust2" class="cluster">
<title>cluster_DeudaExigibleModule_declarations</title>
<polygon fill="none" stroke="#000000" points="345,-78 345,-130 549,-130 549,-78 345,-78"/>
</g>
<g id="clust4" class="cluster">
<title>cluster_DeudaExigibleModule_imports</title>
<polygon fill="none" stroke="#000000" points="16,-78 16,-130 337,-130 337,-78 16,-78"/>
</g>
<!-- DeudaExigibleListComponent -->
<g id="node1" class="node">
<title>DeudaExigibleListComponent</title>
<polygon fill="#ffffb3" stroke="#000000" points="540.5856,-122 353.4144,-122 353.4144,-86 540.5856,-86 540.5856,-122"/>
<text text-anchor="middle" x="447" y="-99.8" font-family="Times,serif" font-size="14.00" fill="#000000">DeudaExigibleListComponent</text>
</g>
<!-- DeudaExigibleModule -->
<g id="node2" class="node">
<title>DeudaExigibleModule</title>
<polygon fill="#8dd3c7" stroke="#000000" points="306.5254,-187 303.5254,-191 282.5254,-191 279.5254,-187 163.4746,-187 163.4746,-151 306.5254,-151 306.5254,-187"/>
<text text-anchor="middle" x="235" y="-164.8" font-family="Times,serif" font-size="14.00" fill="#000000">DeudaExigibleModule</text>
</g>
<!-- DeudaExigibleListComponent&#45;&gt;DeudaExigibleModule -->
<g id="edge1" class="edge">
<title>DeudaExigibleListComponent&#45;&gt;DeudaExigibleModule</title>
<path fill="none" stroke="#000000" d="M447,-122.1061C447,-141.3391 447,-169 447,-169 447,-169 316.7735,-169 316.7735,-169"/>
<polygon fill="#000000" stroke="#000000" points="316.7736,-165.5001 306.7735,-169 316.7735,-172.5001 316.7736,-165.5001"/>
</g>
<!-- DeudaExigibleRoutingModule -->
<g id="node3" class="node">
<title>DeudaExigibleRoutingModule</title>
<polygon fill="#8dd3c7" stroke="#000000" points="329.1427,-122 326.1427,-126 305.1427,-126 302.1427,-122 140.8573,-122 140.8573,-86 329.1427,-86 329.1427,-122"/>
<text text-anchor="middle" x="235" y="-99.8" font-family="Times,serif" font-size="14.00" fill="#000000">DeudaExigibleRoutingModule</text>
</g>
<!-- DeudaExigibleRoutingModule&#45;&gt;DeudaExigibleModule -->
<g id="edge2" class="edge">
<title>DeudaExigibleRoutingModule&#45;&gt;DeudaExigibleModule</title>
<path fill="none" stroke="#000000" d="M235,-122.1061C235,-122.1061 235,-140.991 235,-140.991"/>
<polygon fill="#000000" stroke="#000000" points="231.5001,-140.9909 235,-150.991 238.5001,-140.991 231.5001,-140.9909"/>
</g>
<!-- SharedModule -->
<g id="node4" class="node">
<title>SharedModule</title>
<polygon fill="#8dd3c7" stroke="#000000" points="122.4231,-122 119.4231,-126 98.4231,-126 95.4231,-122 23.5769,-122 23.5769,-86 122.4231,-86 122.4231,-122"/>
<text text-anchor="middle" x="73" y="-99.8" font-family="Times,serif" font-size="14.00" fill="#000000">SharedModule</text>
</g>
<!-- SharedModule&#45;&gt;DeudaExigibleModule -->
<g id="edge3" class="edge">
<title>SharedModule&#45;&gt;DeudaExigibleModule</title>
<path fill="none" stroke="#000000" d="M73,-122.1061C73,-141.3391 73,-169 73,-169 73,-169 153.4729,-169 153.4729,-169"/>
<polygon fill="#000000" stroke="#000000" points="153.4729,-172.5001 163.4729,-169 153.4728,-165.5001 153.4729,-172.5001"/>
</g>
</g>
</svg>
