<?xml version="1.0" encoding="UTF-8" standalone="no"?>
<!DOCTYPE svg PUBLIC "-//W3C//DTD SVG 1.1//EN"
 "http://www.w3.org/Graphics/SVG/1.1/DTD/svg11.dtd">
<!-- Generated by graphviz version 2.40.1 (20161225.0304)
 -->
<!-- Title: dependencies Pages: 1 -->
<svg width="590pt" height="211pt"
 viewBox="0.00 0.00 590.00 211.00" xmlns="http://www.w3.org/2000/svg" xmlns:xlink="http://www.w3.org/1999/xlink">
<g id="graph0" class="graph" transform="scale(1 1) rotate(0) translate(4 207)">
<title>dependencies</title>
<polygon fill="#ffffff" stroke="transparent" points="-4,4 -4,-207 586,-207 586,4 -4,4"/>
<text text-anchor="start" x="270.0091" y="-42.4" font-family="sans-serif" font-weight="bold" font-size="14.00" fill="#000000">Legend</text>
<polygon fill="#ffffb3" stroke="transparent" points="57,-10 57,-30 77,-30 77,-10 57,-10"/>
<text text-anchor="start" x="80.629" y="-15.4" font-family="sans-serif" font-size="14.00" fill="#000000"> &#160;Declarations</text>
<polygon fill="#8dd3c7" stroke="transparent" points="170,-10 170,-30 190,-30 190,-10 170,-10"/>
<text text-anchor="start" x="193.7251" y="-15.4" font-family="sans-serif" font-size="14.00" fill="#000000"> &#160;Module</text>
<polygon fill="#80b1d3" stroke="transparent" points="256,-10 256,-30 276,-30 276,-10 256,-10"/>
<text text-anchor="start" x="279.7812" y="-15.4" font-family="sans-serif" font-size="14.00" fill="#000000"> &#160;Bootstrap</text>
<polygon fill="#fdb462" stroke="transparent" points="353,-10 353,-30 373,-30 373,-10 353,-10"/>
<text text-anchor="start" x="376.6732" y="-15.4" font-family="sans-serif" font-size="14.00" fill="#000000"> &#160;Providers</text>
<polygon fill="#fb8072" stroke="transparent" points="449,-10 449,-30 469,-30 469,-10 449,-10"/>
<text text-anchor="start" x="472.7258" y="-15.4" font-family="sans-serif" font-size="14.00" fill="#000000"> &#160;Exports</text>
<g id="clust1" class="cluster">
<title>cluster_CuentaCorrienteModule</title>
<polygon fill="none" stroke="#000000" stroke-dasharray="1,5" points="8,-70 8,-195 574,-195 574,-70 8,-70"/>
</g>
<g id="clust2" class="cluster">
<title>cluster_CuentaCorrienteModule_declarations</title>
<polygon fill="none" stroke="#000000" points="354,-78 354,-130 566,-130 566,-78 354,-78"/>
</g>
<g id="clust4" class="cluster">
<title>cluster_CuentaCorrienteModule_imports</title>
<polygon fill="none" stroke="#000000" points="16,-78 16,-130 346,-130 346,-78 16,-78"/>
</g>
<!-- CuentaCorrienteListComponent -->
<g id="node1" class="node">
<title>CuentaCorrienteListComponent</title>
<polygon fill="#ffffb3" stroke="#000000" points="557.6357,-122 362.3643,-122 362.3643,-86 557.6357,-86 557.6357,-122"/>
<text text-anchor="middle" x="460" y="-99.8" font-family="Times,serif" font-size="14.00" fill="#000000">CuentaCorrienteListComponent</text>
</g>
<!-- CuentaCorrienteModule -->
<g id="node2" class="node">
<title>CuentaCorrienteModule</title>
<polygon fill="#8dd3c7" stroke="#000000" points="315.0744,-187 312.0744,-191 291.0744,-191 288.0744,-187 162.9256,-187 162.9256,-151 315.0744,-151 315.0744,-187"/>
<text text-anchor="middle" x="239" y="-164.8" font-family="Times,serif" font-size="14.00" fill="#000000">CuentaCorrienteModule</text>
</g>
<!-- CuentaCorrienteListComponent&#45;&gt;CuentaCorrienteModule -->
<g id="edge1" class="edge">
<title>CuentaCorrienteListComponent&#45;&gt;CuentaCorrienteModule</title>
<path fill="none" stroke="#000000" d="M460,-122.1061C460,-141.3391 460,-169 460,-169 460,-169 325.0557,-169 325.0557,-169"/>
<polygon fill="#000000" stroke="#000000" points="325.0557,-165.5001 315.0557,-169 325.0556,-172.5001 325.0557,-165.5001"/>
</g>
<!-- CuentaCorrienteRoutingModule -->
<g id="node3" class="node">
<title>CuentaCorrienteRoutingModule</title>
<polygon fill="#8dd3c7" stroke="#000000" points="337.6923,-122 334.6923,-126 313.6923,-126 310.6923,-122 140.3077,-122 140.3077,-86 337.6923,-86 337.6923,-122"/>
<text text-anchor="middle" x="239" y="-99.8" font-family="Times,serif" font-size="14.00" fill="#000000">CuentaCorrienteRoutingModule</text>
</g>
<!-- CuentaCorrienteRoutingModule&#45;&gt;CuentaCorrienteModule -->
<g id="edge2" class="edge">
<title>CuentaCorrienteRoutingModule&#45;&gt;CuentaCorrienteModule</title>
<path fill="none" stroke="#000000" d="M239,-122.1061C239,-122.1061 239,-140.991 239,-140.991"/>
<polygon fill="#000000" stroke="#000000" points="235.5001,-140.9909 239,-150.991 242.5001,-140.991 235.5001,-140.9909"/>
</g>
<!-- SharedModule -->
<g id="node4" class="node">
<title>SharedModule</title>
<polygon fill="#8dd3c7" stroke="#000000" points="122.4231,-122 119.4231,-126 98.4231,-126 95.4231,-122 23.5769,-122 23.5769,-86 122.4231,-86 122.4231,-122"/>
<text text-anchor="middle" x="73" y="-99.8" font-family="Times,serif" font-size="14.00" fill="#000000">SharedModule</text>
</g>
<!-- SharedModule&#45;&gt;CuentaCorrienteModule -->
<g id="edge3" class="edge">
<title>SharedModule&#45;&gt;CuentaCorrienteModule</title>
<path fill="none" stroke="#000000" d="M73,-122.1061C73,-141.3391 73,-169 73,-169 73,-169 152.8018,-169 152.8018,-169"/>
<polygon fill="#000000" stroke="#000000" points="152.8018,-172.5001 162.8018,-169 152.8018,-165.5001 152.8018,-172.5001"/>
</g>
</g>
</svg>
