<?xml version="1.0" encoding="UTF-8" standalone="no"?>
<!DOCTYPE svg PUBLIC "-//W3C//DTD SVG 1.1//EN"
 "http://www.w3.org/Graphics/SVG/1.1/DTD/svg11.dtd">
<!-- Generated by graphviz version 2.40.1 (20161225.0304)
 -->
<!-- Title: dependencies Pages: 1 -->
<svg width="577pt" height="211pt"
 viewBox="0.00 0.00 577.00 211.00" xmlns="http://www.w3.org/2000/svg" xmlns:xlink="http://www.w3.org/1999/xlink">
<g id="graph0" class="graph" transform="scale(1 1) rotate(0) translate(4 207)">
<title>dependencies</title>
<polygon fill="#ffffff" stroke="transparent" points="-4,4 -4,-207 573,-207 573,4 -4,4"/>
<text text-anchor="start" x="263.5091" y="-42.4" font-family="sans-serif" font-weight="bold" font-size="14.00" fill="#000000">Legend</text>
<polygon fill="#ffffb3" stroke="transparent" points="50.5,-10 50.5,-30 70.5,-30 70.5,-10 50.5,-10"/>
<text text-anchor="start" x="74.129" y="-15.4" font-family="sans-serif" font-size="14.00" fill="#000000"> &#160;Declarations</text>
<polygon fill="#8dd3c7" stroke="transparent" points="163.5,-10 163.5,-30 183.5,-30 183.5,-10 163.5,-10"/>
<text text-anchor="start" x="187.2251" y="-15.4" font-family="sans-serif" font-size="14.00" fill="#000000"> &#160;Module</text>
<polygon fill="#80b1d3" stroke="transparent" points="249.5,-10 249.5,-30 269.5,-30 269.5,-10 249.5,-10"/>
<text text-anchor="start" x="273.2812" y="-15.4" font-family="sans-serif" font-size="14.00" fill="#000000"> &#160;Bootstrap</text>
<polygon fill="#fdb462" stroke="transparent" points="346.5,-10 346.5,-30 366.5,-30 366.5,-10 346.5,-10"/>
<text text-anchor="start" x="370.1732" y="-15.4" font-family="sans-serif" font-size="14.00" fill="#000000"> &#160;Providers</text>
<polygon fill="#fb8072" stroke="transparent" points="442.5,-10 442.5,-30 462.5,-30 462.5,-10 442.5,-10"/>
<text text-anchor="start" x="466.2258" y="-15.4" font-family="sans-serif" font-size="14.00" fill="#000000"> &#160;Exports</text>
<g id="clust1" class="cluster">
<title>cluster_RetencionesIvaModule</title>
<polygon fill="none" stroke="#000000" stroke-dasharray="1,5" points="8,-70 8,-195 561,-195 561,-70 8,-70"/>
</g>
<g id="clust2" class="cluster">
<title>cluster_RetencionesIvaModule_declarations</title>
<polygon fill="none" stroke="#000000" points="347,-78 347,-130 553,-130 553,-78 347,-78"/>
</g>
<g id="clust4" class="cluster">
<title>cluster_RetencionesIvaModule_imports</title>
<polygon fill="none" stroke="#000000" points="16,-78 16,-130 339,-130 339,-78 16,-78"/>
</g>
<!-- RetencionesIvaListComponent -->
<g id="node1" class="node">
<title>RetencionesIvaListComponent</title>
<polygon fill="#ffffb3" stroke="#000000" points="544.9072,-122 355.0928,-122 355.0928,-86 544.9072,-86 544.9072,-122"/>
<text text-anchor="middle" x="450" y="-99.8" font-family="Times,serif" font-size="14.00" fill="#000000">RetencionesIvaListComponent</text>
</g>
<!-- RetencionesIvaModule -->
<g id="node2" class="node">
<title>RetencionesIvaModule</title>
<polygon fill="#8dd3c7" stroke="#000000" points="308.8459,-187 305.8459,-191 284.8459,-191 281.8459,-187 163.1541,-187 163.1541,-151 308.8459,-151 308.8459,-187"/>
<text text-anchor="middle" x="236" y="-164.8" font-family="Times,serif" font-size="14.00" fill="#000000">RetencionesIvaModule</text>
</g>
<!-- RetencionesIvaListComponent&#45;&gt;RetencionesIvaModule -->
<g id="edge1" class="edge">
<title>RetencionesIvaListComponent&#45;&gt;RetencionesIvaModule</title>
<path fill="none" stroke="#000000" d="M450,-122.1061C450,-141.3391 450,-169 450,-169 450,-169 319.0481,-169 319.0481,-169"/>
<polygon fill="#000000" stroke="#000000" points="319.0482,-165.5001 309.0481,-169 319.0481,-172.5001 319.0482,-165.5001"/>
</g>
<!-- RetencionesIvaRoutingModule -->
<g id="node3" class="node">
<title>RetencionesIvaRoutingModule</title>
<polygon fill="#8dd3c7" stroke="#000000" points="331.4636,-122 328.4636,-126 307.4636,-126 304.4636,-122 140.5364,-122 140.5364,-86 331.4636,-86 331.4636,-122"/>
<text text-anchor="middle" x="236" y="-99.8" font-family="Times,serif" font-size="14.00" fill="#000000">RetencionesIvaRoutingModule</text>
</g>
<!-- RetencionesIvaRoutingModule&#45;&gt;RetencionesIvaModule -->
<g id="edge2" class="edge">
<title>RetencionesIvaRoutingModule&#45;&gt;RetencionesIvaModule</title>
<path fill="none" stroke="#000000" d="M236,-122.1061C236,-122.1061 236,-140.991 236,-140.991"/>
<polygon fill="#000000" stroke="#000000" points="232.5001,-140.9909 236,-150.991 239.5001,-140.991 232.5001,-140.9909"/>
</g>
<!-- SharedModule -->
<g id="node4" class="node">
<title>SharedModule</title>
<polygon fill="#8dd3c7" stroke="#000000" points="122.4231,-122 119.4231,-126 98.4231,-126 95.4231,-122 23.5769,-122 23.5769,-86 122.4231,-86 122.4231,-122"/>
<text text-anchor="middle" x="73" y="-99.8" font-family="Times,serif" font-size="14.00" fill="#000000">SharedModule</text>
</g>
<!-- SharedModule&#45;&gt;RetencionesIvaModule -->
<g id="edge3" class="edge">
<title>SharedModule&#45;&gt;RetencionesIvaModule</title>
<path fill="none" stroke="#000000" d="M73,-122.1061C73,-141.3391 73,-169 73,-169 73,-169 153.0815,-169 153.0815,-169"/>
<polygon fill="#000000" stroke="#000000" points="153.0816,-172.5001 163.0815,-169 153.0815,-165.5001 153.0816,-172.5001"/>
</g>
</g>
</svg>
