<?xml version="1.0" encoding="UTF-8" standalone="no"?>
<!DOCTYPE svg PUBLIC "-//W3C//DTD SVG 1.1//EN"
 "http://www.w3.org/Graphics/SVG/1.1/DTD/svg11.dtd">
<!-- Generated by graphviz version 2.40.1 (20161225.0304)
 -->
<!-- Title: dependencies Pages: 1 -->
<svg width="641pt" height="211pt"
 viewBox="0.00 0.00 641.00 211.00" xmlns="http://www.w3.org/2000/svg" xmlns:xlink="http://www.w3.org/1999/xlink">
<g id="graph0" class="graph" transform="scale(1 1) rotate(0) translate(4 207)">
<title>dependencies</title>
<polygon fill="#ffffff" stroke="transparent" points="-4,4 -4,-207 637,-207 637,4 -4,4"/>
<text text-anchor="start" x="295.5091" y="-42.4" font-family="sans-serif" font-weight="bold" font-size="14.00" fill="#000000">Legend</text>
<polygon fill="#ffffb3" stroke="transparent" points="82.5,-10 82.5,-30 102.5,-30 102.5,-10 82.5,-10"/>
<text text-anchor="start" x="106.129" y="-15.4" font-family="sans-serif" font-size="14.00" fill="#000000"> &#160;Declarations</text>
<polygon fill="#8dd3c7" stroke="transparent" points="195.5,-10 195.5,-30 215.5,-30 215.5,-10 195.5,-10"/>
<text text-anchor="start" x="219.2251" y="-15.4" font-family="sans-serif" font-size="14.00" fill="#000000"> &#160;Module</text>
<polygon fill="#80b1d3" stroke="transparent" points="281.5,-10 281.5,-30 301.5,-30 301.5,-10 281.5,-10"/>
<text text-anchor="start" x="305.2812" y="-15.4" font-family="sans-serif" font-size="14.00" fill="#000000"> &#160;Bootstrap</text>
<polygon fill="#fdb462" stroke="transparent" points="378.5,-10 378.5,-30 398.5,-30 398.5,-10 378.5,-10"/>
<text text-anchor="start" x="402.1732" y="-15.4" font-family="sans-serif" font-size="14.00" fill="#000000"> &#160;Providers</text>
<polygon fill="#fb8072" stroke="transparent" points="474.5,-10 474.5,-30 494.5,-30 494.5,-10 474.5,-10"/>
<text text-anchor="start" x="498.2258" y="-15.4" font-family="sans-serif" font-size="14.00" fill="#000000"> &#160;Exports</text>
<g id="clust1" class="cluster">
<title>cluster_ComisionesFactPendModule</title>
<polygon fill="none" stroke="#000000" stroke-dasharray="1,5" points="8,-70 8,-195 625,-195 625,-70 8,-70"/>
</g>
<g id="clust2" class="cluster">
<title>cluster_ComisionesFactPendModule_declarations</title>
<polygon fill="none" stroke="#000000" points="379,-78 379,-130 617,-130 617,-78 379,-78"/>
</g>
<g id="clust4" class="cluster">
<title>cluster_ComisionesFactPendModule_imports</title>
<polygon fill="none" stroke="#000000" points="16,-78 16,-130 371,-130 371,-78 16,-78"/>
</g>
<!-- ComisionesFactPendListComponent -->
<g id="node1" class="node">
<title>ComisionesFactPendListComponent</title>
<polygon fill="#ffffb3" stroke="#000000" points="608.8228,-122 387.1772,-122 387.1772,-86 608.8228,-86 608.8228,-122"/>
<text text-anchor="middle" x="498" y="-99.8" font-family="Times,serif" font-size="14.00" fill="#000000">ComisionesFactPendListComponent</text>
</g>
<!-- ComisionesFactPendModule -->
<g id="node2" class="node">
<title>ComisionesFactPendModule</title>
<polygon fill="#8dd3c7" stroke="#000000" points="340.7618,-187 337.7618,-191 316.7618,-191 313.7618,-187 163.2382,-187 163.2382,-151 340.7618,-151 340.7618,-187"/>
<text text-anchor="middle" x="252" y="-164.8" font-family="Times,serif" font-size="14.00" fill="#000000">ComisionesFactPendModule</text>
</g>
<!-- ComisionesFactPendListComponent&#45;&gt;ComisionesFactPendModule -->
<g id="edge1" class="edge">
<title>ComisionesFactPendListComponent&#45;&gt;ComisionesFactPendModule</title>
<path fill="none" stroke="#000000" d="M498,-122.1061C498,-141.3391 498,-169 498,-169 498,-169 350.8116,-169 350.8116,-169"/>
<polygon fill="#000000" stroke="#000000" points="350.8117,-165.5001 340.8116,-169 350.8116,-172.5001 350.8117,-165.5001"/>
</g>
<!-- ComisionesFactPendRoutingModule -->
<g id="node3" class="node">
<title>ComisionesFactPendRoutingModule</title>
<polygon fill="#8dd3c7" stroke="#000000" points="363.3794,-122 360.3794,-126 339.3794,-126 336.3794,-122 140.6206,-122 140.6206,-86 363.3794,-86 363.3794,-122"/>
<text text-anchor="middle" x="252" y="-99.8" font-family="Times,serif" font-size="14.00" fill="#000000">ComisionesFactPendRoutingModule</text>
</g>
<!-- ComisionesFactPendRoutingModule&#45;&gt;ComisionesFactPendModule -->
<g id="edge2" class="edge">
<title>ComisionesFactPendRoutingModule&#45;&gt;ComisionesFactPendModule</title>
<path fill="none" stroke="#000000" d="M252,-122.1061C252,-122.1061 252,-140.991 252,-140.991"/>
<polygon fill="#000000" stroke="#000000" points="248.5001,-140.9909 252,-150.991 255.5001,-140.991 248.5001,-140.9909"/>
</g>
<!-- SharedModule -->
<g id="node4" class="node">
<title>SharedModule</title>
<polygon fill="#8dd3c7" stroke="#000000" points="122.4231,-122 119.4231,-126 98.4231,-126 95.4231,-122 23.5769,-122 23.5769,-86 122.4231,-86 122.4231,-122"/>
<text text-anchor="middle" x="73" y="-99.8" font-family="Times,serif" font-size="14.00" fill="#000000">SharedModule</text>
</g>
<!-- SharedModule&#45;&gt;ComisionesFactPendModule -->
<g id="edge3" class="edge">
<title>SharedModule&#45;&gt;ComisionesFactPendModule</title>
<path fill="none" stroke="#000000" d="M73,-122.1061C73,-141.3391 73,-169 73,-169 73,-169 153.0244,-169 153.0244,-169"/>
<polygon fill="#000000" stroke="#000000" points="153.0244,-172.5001 163.0244,-169 153.0244,-165.5001 153.0244,-172.5001"/>
</g>
</g>
</svg>
