<?xml version="1.0" encoding="UTF-8" standalone="no"?>
<!DOCTYPE svg PUBLIC "-//W3C//DTD SVG 1.1//EN"
 "http://www.w3.org/Graphics/SVG/1.1/DTD/svg11.dtd">
<!-- Generated by graphviz version 2.40.1 (20161225.0304)
 -->
<!-- Title: dependencies Pages: 1 -->
<svg width="613pt" height="211pt"
 viewBox="0.00 0.00 613.00 211.00" xmlns="http://www.w3.org/2000/svg" xmlns:xlink="http://www.w3.org/1999/xlink">
<g id="graph0" class="graph" transform="scale(1 1) rotate(0) translate(4 207)">
<title>dependencies</title>
<polygon fill="#ffffff" stroke="transparent" points="-4,4 -4,-207 609,-207 609,4 -4,4"/>
<text text-anchor="start" x="281.5091" y="-42.4" font-family="sans-serif" font-weight="bold" font-size="14.00" fill="#000000">Legend</text>
<polygon fill="#ffffb3" stroke="transparent" points="68.5,-10 68.5,-30 88.5,-30 88.5,-10 68.5,-10"/>
<text text-anchor="start" x="92.129" y="-15.4" font-family="sans-serif" font-size="14.00" fill="#000000"> &#160;Declarations</text>
<polygon fill="#8dd3c7" stroke="transparent" points="181.5,-10 181.5,-30 201.5,-30 201.5,-10 181.5,-10"/>
<text text-anchor="start" x="205.2251" y="-15.4" font-family="sans-serif" font-size="14.00" fill="#000000"> &#160;Module</text>
<polygon fill="#80b1d3" stroke="transparent" points="267.5,-10 267.5,-30 287.5,-30 287.5,-10 267.5,-10"/>
<text text-anchor="start" x="291.2812" y="-15.4" font-family="sans-serif" font-size="14.00" fill="#000000"> &#160;Bootstrap</text>
<polygon fill="#fdb462" stroke="transparent" points="364.5,-10 364.5,-30 384.5,-30 384.5,-10 364.5,-10"/>
<text text-anchor="start" x="388.1732" y="-15.4" font-family="sans-serif" font-size="14.00" fill="#000000"> &#160;Providers</text>
<polygon fill="#fb8072" stroke="transparent" points="460.5,-10 460.5,-30 480.5,-30 480.5,-10 460.5,-10"/>
<text text-anchor="start" x="484.2258" y="-15.4" font-family="sans-serif" font-size="14.00" fill="#000000"> &#160;Exports</text>
<g id="clust1" class="cluster">
<title>cluster_AnularIncobrablesModule</title>
<polygon fill="none" stroke="#000000" stroke-dasharray="1,5" points="8,-70 8,-195 597,-195 597,-70 8,-70"/>
</g>
<g id="clust2" class="cluster">
<title>cluster_AnularIncobrablesModule_declarations</title>
<polygon fill="none" stroke="#000000" points="365,-78 365,-130 589,-130 589,-78 365,-78"/>
</g>
<g id="clust4" class="cluster">
<title>cluster_AnularIncobrablesModule_imports</title>
<polygon fill="none" stroke="#000000" points="16,-78 16,-130 357,-130 357,-78 16,-78"/>
</g>
<!-- AnularIncobrablesListComponent -->
<g id="node1" class="node">
<title>AnularIncobrablesListComponent</title>
<polygon fill="#ffffb3" stroke="#000000" points="580.7836,-122 373.2164,-122 373.2164,-86 580.7836,-86 580.7836,-122"/>
<text text-anchor="middle" x="477" y="-99.8" font-family="Times,serif" font-size="14.00" fill="#000000">AnularIncobrablesListComponent</text>
</g>
<!-- AnularIncobrablesModule -->
<g id="node2" class="node">
<title>AnularIncobrablesModule</title>
<polygon fill="#8dd3c7" stroke="#000000" points="326.7226,-187 323.7226,-191 302.7226,-191 299.7226,-187 163.2774,-187 163.2774,-151 326.7226,-151 326.7226,-187"/>
<text text-anchor="middle" x="245" y="-164.8" font-family="Times,serif" font-size="14.00" fill="#000000">AnularIncobrablesModule</text>
</g>
<!-- AnularIncobrablesListComponent&#45;&gt;AnularIncobrablesModule -->
<g id="edge1" class="edge">
<title>AnularIncobrablesListComponent&#45;&gt;AnularIncobrablesModule</title>
<path fill="none" stroke="#000000" d="M477,-122.1061C477,-141.3391 477,-169 477,-169 477,-169 336.7945,-169 336.7945,-169"/>
<polygon fill="#000000" stroke="#000000" points="336.7946,-165.5001 326.7945,-169 336.7945,-172.5001 336.7946,-165.5001"/>
</g>
<!-- AnularIncobrablesRoutingModule -->
<g id="node3" class="node">
<title>AnularIncobrablesRoutingModule</title>
<polygon fill="#8dd3c7" stroke="#000000" points="349.3403,-122 346.3403,-126 325.3403,-126 322.3403,-122 140.6597,-122 140.6597,-86 349.3403,-86 349.3403,-122"/>
<text text-anchor="middle" x="245" y="-99.8" font-family="Times,serif" font-size="14.00" fill="#000000">AnularIncobrablesRoutingModule</text>
</g>
<!-- AnularIncobrablesRoutingModule&#45;&gt;AnularIncobrablesModule -->
<g id="edge2" class="edge">
<title>AnularIncobrablesRoutingModule&#45;&gt;AnularIncobrablesModule</title>
<path fill="none" stroke="#000000" d="M245,-122.1061C245,-122.1061 245,-140.991 245,-140.991"/>
<polygon fill="#000000" stroke="#000000" points="241.5001,-140.9909 245,-150.991 248.5001,-140.991 241.5001,-140.9909"/>
</g>
<!-- SharedModule -->
<g id="node4" class="node">
<title>SharedModule</title>
<polygon fill="#8dd3c7" stroke="#000000" points="122.4231,-122 119.4231,-126 98.4231,-126 95.4231,-122 23.5769,-122 23.5769,-86 122.4231,-86 122.4231,-122"/>
<text text-anchor="middle" x="73" y="-99.8" font-family="Times,serif" font-size="14.00" fill="#000000">SharedModule</text>
</g>
<!-- SharedModule&#45;&gt;AnularIncobrablesModule -->
<g id="edge3" class="edge">
<title>SharedModule&#45;&gt;AnularIncobrablesModule</title>
<path fill="none" stroke="#000000" d="M73,-122.1061C73,-141.3391 73,-169 73,-169 73,-169 153.0299,-169 153.0299,-169"/>
<polygon fill="#000000" stroke="#000000" points="153.03,-172.5001 163.0299,-169 153.0299,-165.5001 153.03,-172.5001"/>
</g>
</g>
</svg>
