<?xml version="1.0" encoding="UTF-8" standalone="no"?>
<!DOCTYPE svg PUBLIC "-//W3C//DTD SVG 1.1//EN"
 "http://www.w3.org/Graphics/SVG/1.1/DTD/svg11.dtd">
<!-- Generated by graphviz version 2.40.1 (20161225.0304)
 -->
<!-- Title: dependencies Pages: 1 -->
<svg width="504pt" height="284pt"
 viewBox="0.00 0.00 504.00 284.00" xmlns="http://www.w3.org/2000/svg" xmlns:xlink="http://www.w3.org/1999/xlink">
<g id="graph0" class="graph" transform="scale(1 1) rotate(0) translate(4 280)">
<title>dependencies</title>
<polygon fill="#ffffff" stroke="transparent" points="-4,4 -4,-280 500,-280 500,4 -4,4"/>
<text text-anchor="start" x="227.0091" y="-42.4" font-family="sans-serif" font-weight="bold" font-size="14.00" fill="#000000">Legend</text>
<polygon fill="#ffffb3" stroke="transparent" points="14,-10 14,-30 34,-30 34,-10 14,-10"/>
<text text-anchor="start" x="37.629" y="-15.4" font-family="sans-serif" font-size="14.00" fill="#000000"> &#160;Declarations</text>
<polygon fill="#8dd3c7" stroke="transparent" points="127,-10 127,-30 147,-30 147,-10 127,-10"/>
<text text-anchor="start" x="150.7251" y="-15.4" font-family="sans-serif" font-size="14.00" fill="#000000"> &#160;Module</text>
<polygon fill="#80b1d3" stroke="transparent" points="213,-10 213,-30 233,-30 233,-10 213,-10"/>
<text text-anchor="start" x="236.7812" y="-15.4" font-family="sans-serif" font-size="14.00" fill="#000000"> &#160;Bootstrap</text>
<polygon fill="#fdb462" stroke="transparent" points="310,-10 310,-30 330,-30 330,-10 310,-10"/>
<text text-anchor="start" x="333.6732" y="-15.4" font-family="sans-serif" font-size="14.00" fill="#000000"> &#160;Providers</text>
<polygon fill="#fb8072" stroke="transparent" points="406,-10 406,-30 426,-30 426,-10 406,-10"/>
<text text-anchor="start" x="429.7258" y="-15.4" font-family="sans-serif" font-size="14.00" fill="#000000"> &#160;Exports</text>
<g id="clust1" class="cluster">
<title>cluster_PipesModule</title>
<polygon fill="none" stroke="#000000" stroke-dasharray="1,5" points="8.5,-70 8.5,-268 487.5,-268 487.5,-70 8.5,-70"/>
</g>
<g id="clust2" class="cluster">
<title>cluster_PipesModule_declarations</title>
<polygon fill="none" stroke="#000000" points="25.5,-78 25.5,-130 473.5,-130 473.5,-78 25.5,-78"/>
</g>
<g id="clust8" class="cluster">
<title>cluster_PipesModule_exports</title>
<polygon fill="none" stroke="#000000" points="16.5,-208 16.5,-260 479.5,-260 479.5,-208 16.5,-208"/>
</g>
<!-- FilterTablePipe -->
<g id="node1" class="node">
<title>FilterTablePipe</title>
<polygon fill="#ffffb3" stroke="#000000" points="465.0898,-122 361.9102,-122 361.9102,-86 465.0898,-86 465.0898,-122"/>
<text text-anchor="middle" x="413.5" y="-99.8" font-family="Times,serif" font-size="14.00" fill="#000000">FilterTablePipe</text>
</g>
<!-- PipesModule -->
<g id="node5" class="node">
<title>PipesModule</title>
<polygon fill="#8dd3c7" stroke="#000000" points="222.3823,-187 219.3823,-191 198.3823,-191 195.3823,-187 132.6177,-187 132.6177,-151 222.3823,-151 222.3823,-187"/>
<text text-anchor="middle" x="177.5" y="-164.8" font-family="Times,serif" font-size="14.00" fill="#000000">PipesModule</text>
</g>
<!-- FilterTablePipe&#45;&gt;PipesModule -->
<g id="edge1" class="edge">
<title>FilterTablePipe&#45;&gt;PipesModule</title>
<path fill="none" stroke="#000000" d="M431.765,-122.2667C431.765,-140.5552 431.765,-166 431.765,-166 431.765,-166 232.6645,-166 232.6645,-166"/>
<polygon fill="#000000" stroke="#000000" points="232.6645,-162.5001 222.6645,-166 232.6645,-169.5001 232.6645,-162.5001"/>
</g>
<!-- ObjectKeysPipe -->
<g id="node2" class="node">
<title>ObjectKeysPipe</title>
<polygon fill="#ffffb3" stroke="#000000" points="343.9706,-122 237.0294,-122 237.0294,-86 343.9706,-86 343.9706,-122"/>
<text text-anchor="middle" x="290.5" y="-99.8" font-family="Times,serif" font-size="14.00" fill="#000000">ObjectKeysPipe</text>
</g>
<!-- ObjectKeysPipe&#45;&gt;PipesModule -->
<g id="edge2" class="edge">
<title>ObjectKeysPipe&#45;&gt;PipesModule</title>
<path fill="none" stroke="#000000" d="M308.3284,-122.0091C308.3284,-138.0494 308.3284,-159 308.3284,-159 308.3284,-159 232.5237,-159 232.5237,-159"/>
<polygon fill="#000000" stroke="#000000" points="232.5238,-155.5001 222.5237,-159 232.5237,-162.5001 232.5238,-155.5001"/>
</g>
<!-- OrderByPipe -->
<g id="node3" class="node">
<title>OrderByPipe</title>
<polygon fill="#ffffb3" stroke="#000000" points="219.3669,-122 129.6331,-122 129.6331,-86 219.3669,-86 219.3669,-122"/>
<text text-anchor="middle" x="174.5" y="-99.8" font-family="Times,serif" font-size="14.00" fill="#000000">OrderByPipe</text>
</g>
<!-- OrderByPipe&#45;&gt;PipesModule -->
<g id="edge3" class="edge">
<title>OrderByPipe&#45;&gt;PipesModule</title>
<path fill="none" stroke="#000000" d="M175.9962,-122.1061C175.9962,-122.1061 175.9962,-140.991 175.9962,-140.991"/>
<polygon fill="#000000" stroke="#000000" points="172.4962,-140.9909 175.9962,-150.991 179.4962,-140.991 172.4962,-140.9909"/>
</g>
<!-- SearchPipe -->
<g id="node4" class="node">
<title>SearchPipe</title>
<polygon fill="#ffffb3" stroke="#000000" points="111.9748,-122 33.0252,-122 33.0252,-86 111.9748,-86 111.9748,-122"/>
<text text-anchor="middle" x="72.5" y="-99.8" font-family="Times,serif" font-size="14.00" fill="#000000">SearchPipe</text>
</g>
<!-- SearchPipe&#45;&gt;PipesModule -->
<g id="edge4" class="edge">
<title>SearchPipe&#45;&gt;PipesModule</title>
<path fill="none" stroke="#000000" d="M82.1625,-122.0225C82.1625,-139.3734 82.1625,-163 82.1625,-163 82.1625,-163 122.344,-163 122.344,-163"/>
<polygon fill="#000000" stroke="#000000" points="122.344,-166.5001 132.344,-163 122.3439,-159.5001 122.344,-166.5001"/>
</g>
<!-- FilterTablePipe  -->
<g id="node6" class="node">
<title>FilterTablePipe </title>
<polygon fill="#fb8072" stroke="#000000" points="471.5906,-252 365.4094,-252 365.4094,-216 471.5906,-216 471.5906,-252"/>
<text text-anchor="middle" x="418.5" y="-229.8" font-family="Times,serif" font-size="14.00" fill="#000000">FilterTablePipe </text>
</g>
<!-- PipesModule&#45;&gt;FilterTablePipe  -->
<g id="edge5" class="edge">
<title>PipesModule&#45;&gt;FilterTablePipe </title>
<path fill="none" stroke="#000000" stroke-dasharray="5,2" d="M222.486,-173C287.0987,-173 398.485,-173 398.485,-173 398.485,-173 398.485,-205.698 398.485,-205.698"/>
<polygon fill="#000000" stroke="#000000" points="394.9851,-205.698 398.485,-215.698 401.9851,-205.698 394.9851,-205.698"/>
</g>
<!-- ObjectKeysPipe  -->
<g id="node7" class="node">
<title>ObjectKeysPipe </title>
<polygon fill="#fb8072" stroke="#000000" points="346.9716,-252 236.0284,-252 236.0284,-216 346.9716,-216 346.9716,-252"/>
<text text-anchor="middle" x="291.5" y="-229.8" font-family="Times,serif" font-size="14.00" fill="#000000">ObjectKeysPipe </text>
</g>
<!-- PipesModule&#45;&gt;ObjectKeysPipe  -->
<g id="edge6" class="edge">
<title>PipesModule&#45;&gt;ObjectKeysPipe </title>
<path fill="none" stroke="#000000" stroke-dasharray="5,2" d="M222.5774,-180C247.1763,-180 272.6716,-180 272.6716,-180 272.6716,-180 272.6716,-205.7181 272.6716,-205.7181"/>
<polygon fill="#000000" stroke="#000000" points="269.1717,-205.718 272.6716,-215.7181 276.1717,-205.7181 269.1717,-205.718"/>
</g>
<!-- OrderByPipe  -->
<g id="node8" class="node">
<title>OrderByPipe </title>
<polygon fill="#fb8072" stroke="#000000" points="218.3675,-252 124.6325,-252 124.6325,-216 218.3675,-216 218.3675,-252"/>
<text text-anchor="middle" x="171.5" y="-229.8" font-family="Times,serif" font-size="14.00" fill="#000000">OrderByPipe </text>
</g>
<!-- PipesModule&#45;&gt;OrderByPipe  -->
<g id="edge7" class="edge">
<title>PipesModule&#45;&gt;OrderByPipe </title>
<path fill="none" stroke="#000000" stroke-dasharray="5,2" d="M175.3712,-187.1061C175.3712,-187.1061 175.3712,-205.991 175.3712,-205.991"/>
<polygon fill="#000000" stroke="#000000" points="171.8712,-205.9909 175.3712,-215.991 178.8712,-205.991 171.8712,-205.9909"/>
</g>
<!-- SearchPipe  -->
<g id="node9" class="node">
<title>SearchPipe </title>
<polygon fill="#fb8072" stroke="#000000" points="106.9762,-252 24.0238,-252 24.0238,-216 106.9762,-216 106.9762,-252"/>
<text text-anchor="middle" x="65.5" y="-229.8" font-family="Times,serif" font-size="14.00" fill="#000000">SearchPipe </text>
</g>
<!-- PipesModule&#45;&gt;SearchPipe  -->
<g id="edge8" class="edge">
<title>PipesModule&#45;&gt;SearchPipe </title>
<path fill="none" stroke="#000000" stroke-dasharray="5,2" d="M132.5079,-175C98.4822,-175 57.5875,-175 57.5875,-175 57.5875,-175 57.5875,-205.9775 57.5875,-205.9775"/>
<polygon fill="#000000" stroke="#000000" points="54.0876,-205.9774 57.5875,-215.9775 61.0876,-205.9775 54.0876,-205.9774"/>
</g>
</g>
</svg>
