<?xml version="1.0" encoding="UTF-8" standalone="no"?>
<!DOCTYPE svg PUBLIC "-//W3C//DTD SVG 1.1//EN"
 "http://www.w3.org/Graphics/SVG/1.1/DTD/svg11.dtd">
<!-- Generated by graphviz version 2.40.1 (20161225.0304)
 -->
<!-- Title: dependencies Pages: 1 -->
<svg width="504pt" height="284pt"
 viewBox="0.00 0.00 504.00 284.00" xmlns="http://www.w3.org/2000/svg" xmlns:xlink="http://www.w3.org/1999/xlink">
<g id="graph0" class="graph" transform="scale(1 1) rotate(0) translate(4 280)">
<title>dependencies</title>
<polygon fill="#ffffff" stroke="transparent" points="-4,4 -4,-280 500,-280 500,4 -4,4"/>
<text text-anchor="start" x="227.0091" y="-42.4" font-family="sans-serif" font-weight="bold" font-size="14.00" fill="#000000">Legend</text>
<polygon fill="#ffffb3" stroke="transparent" points="14,-10 14,-30 34,-30 34,-10 14,-10"/>
<text text-anchor="start" x="37.629" y="-15.4" font-family="sans-serif" font-size="14.00" fill="#000000"> &#160;Declarations</text>
<polygon fill="#8dd3c7" stroke="transparent" points="127,-10 127,-30 147,-30 147,-10 127,-10"/>
<text text-anchor="start" x="150.7251" y="-15.4" font-family="sans-serif" font-size="14.00" fill="#000000"> &#160;Module</text>
<polygon fill="#80b1d3" stroke="transparent" points="213,-10 213,-30 233,-30 233,-10 213,-10"/>
<text text-anchor="start" x="236.7812" y="-15.4" font-family="sans-serif" font-size="14.00" fill="#000000"> &#160;Bootstrap</text>
<polygon fill="#fdb462" stroke="transparent" points="310,-10 310,-30 330,-30 330,-10 310,-10"/>
<text text-anchor="start" x="333.6732" y="-15.4" font-family="sans-serif" font-size="14.00" fill="#000000"> &#160;Providers</text>
<polygon fill="#fb8072" stroke="transparent" points="406,-10 406,-30 426,-30 426,-10 406,-10"/>
<text text-anchor="start" x="429.7258" y="-15.4" font-family="sans-serif" font-size="14.00" fill="#000000"> &#160;Exports</text>
<g id="clust1" class="cluster">
<title>cluster_LoaderModule</title>
<polygon fill="none" stroke="#000000" stroke-dasharray="1,5" points="93,-70 93,-268 403,-268 403,-70 93,-70"/>
</g>
<g id="clust2" class="cluster">
<title>cluster_LoaderModule_declarations</title>
<polygon fill="none" stroke="#000000" points="259,-78 259,-130 395,-130 395,-78 259,-78"/>
</g>
<g id="clust5" class="cluster">
<title>cluster_LoaderModule_exports</title>
<polygon fill="none" stroke="#000000" points="180,-208 180,-260 320,-260 320,-208 180,-208"/>
</g>
<g id="clust7" class="cluster">
<title>cluster_LoaderModule_providers</title>
<polygon fill="none" stroke="#000000" points="101,-78 101,-130 251,-130 251,-78 101,-78"/>
</g>
<!-- LoaderComponent -->
<g id="node1" class="node">
<title>LoaderComponent</title>
<polygon fill="#ffffb3" stroke="#000000" points="387.4748,-122 266.5252,-122 266.5252,-86 387.4748,-86 387.4748,-122"/>
<text text-anchor="middle" x="327" y="-99.8" font-family="Times,serif" font-size="14.00" fill="#000000">LoaderComponent</text>
</g>
<!-- LoaderModule -->
<g id="node2" class="node">
<title>LoaderModule</title>
<polygon fill="#8dd3c7" stroke="#000000" points="299.6924,-187 296.6924,-191 275.6924,-191 272.6924,-187 200.3076,-187 200.3076,-151 299.6924,-151 299.6924,-187"/>
<text text-anchor="middle" x="250" y="-164.8" font-family="Times,serif" font-size="14.00" fill="#000000">LoaderModule</text>
</g>
<!-- LoaderComponent&#45;&gt;LoaderModule -->
<g id="edge1" class="edge">
<title>LoaderComponent&#45;&gt;LoaderModule</title>
<path fill="none" stroke="#000000" d="M283.0544,-122.1061C283.0544,-122.1061 283.0544,-140.991 283.0544,-140.991"/>
<polygon fill="#000000" stroke="#000000" points="279.5544,-140.9909 283.0544,-150.991 286.5544,-140.991 279.5544,-140.9909"/>
</g>
<!-- LoaderComponent  -->
<g id="node3" class="node">
<title>LoaderComponent </title>
<polygon fill="#fb8072" stroke="#000000" points="312.4757,-252 187.5243,-252 187.5243,-216 312.4757,-216 312.4757,-252"/>
<text text-anchor="middle" x="250" y="-229.8" font-family="Times,serif" font-size="14.00" fill="#000000">LoaderComponent </text>
</g>
<!-- LoaderModule&#45;&gt;LoaderComponent  -->
<g id="edge2" class="edge">
<title>LoaderModule&#45;&gt;LoaderComponent </title>
<path fill="none" stroke="#000000" stroke-dasharray="5,2" d="M250,-187.1061C250,-187.1061 250,-205.991 250,-205.991"/>
<polygon fill="#000000" stroke="#000000" points="246.5001,-205.9909 250,-215.991 253.5001,-205.991 246.5001,-205.9909"/>
</g>
<!-- LoaderService -->
<g id="node4" class="node">
<title>LoaderService</title>
<ellipse fill="#fdb462" stroke="#000000" cx="176" cy="-104" rx="67.1734" ry="18"/>
<text text-anchor="middle" x="176" y="-99.8" font-family="Times,serif" font-size="14.00" fill="#000000">LoaderService</text>
</g>
<!-- LoaderService&#45;&gt;LoaderModule -->
<g id="edge3" class="edge">
<title>LoaderService&#45;&gt;LoaderModule</title>
<path fill="none" stroke="#000000" d="M221.8702,-117.468C221.8702,-117.468 221.8702,-140.8642 221.8702,-140.8642"/>
<polygon fill="#000000" stroke="#000000" points="218.3703,-140.8641 221.8702,-150.8642 225.3703,-140.8642 218.3703,-140.8641"/>
</g>
</g>
</svg>
