<svg xmlns="http://www.w3.org/2000/svg" width="32" height="32" viewBox="0 0 32 32">
    <g fill="#0C3071" fill-rule="nonzero">
        <path d="M31.425 8.991L22.539.315c-.21-.21-.42-.315-.743-.315H9.948a.97.97 0 0 0-.743.315L.319 8.99c-.21.21-.315.42-.315.743V22.01a.97.97 0 0 0 .315.743l8.886 8.676c.21.21.42.315.743.315h11.848c.21 0 .533-.105.743-.315l8.886-8.676c.21-.21.315-.42.315-.743V9.734c.008-.323-.105-.533-.315-.743zm-1.8 12.591l-8.257 8.04h-11l-8.258-8.04V10.154l8.257-8.04h11.001l8.257 8.04v11.428z"/>
        <path d="M16.614 22.954a1.033 1.033 0 0 0-1.485 0c-.21.21-.315.42-.315.743a.97.97 0 0 0 .315.743c.21.21.42.314.743.314s.533-.105.742-.314c.21-.21.315-.42.315-.743a.97.97 0 0 0-.315-.743zM15.872 7.934c-.638 0-1.058.42-1.058 1.057v11.324c0 .638.42 1.057 1.058 1.057.637 0 1.057-.42 1.057-1.057V8.991c0-.637-.42-1.057-1.057-1.057z"/>
    </g>
</svg>
