<?xml version="1.0" encoding="UTF-8"?>
<svg width="28px" height="28px" viewBox="0 0 28 28" version="1.1" xmlns="http://www.w3.org/2000/svg" xmlns:xlink="http://www.w3.org/1999/xlink">
    <!-- Generator: Sketch 58 (84663) - https://sketch.com -->
    <title>zoom-split</title>
    <desc>Created with Sketch.</desc>
    <g id="Diseño" stroke="none" stroke-width="1" fill="none" fill-rule="evenodd">
        <g id="Guia-Estilos" transform="translate(-529.000000, -1558.000000)" fill="#219CDC" fill-rule="nonzero">
            <g id="zoom-split" transform="translate(529.000000, 1558.000000)">
                <path d="M22.5153458,20.9923465 L27.6845765,26.1615773 C28.1051412,26.5821419 28.1051412,27.2640119 27.6845765,27.6845765 C27.2640119,28.1051412 26.5821419,28.1051412 26.1615773,27.6845765 L20.9923465,22.5153458 C20.5717819,22.0947811 20.5717819,21.4129112 20.9923465,20.9923465 C21.4129112,20.5717819 22.0947811,20.5717819 22.5153458,20.9923465 Z M11.4153846,0 C17.7199275,0 22.8307692,5.11084178 22.8307692,11.4153846 C22.8307692,17.7199275 17.7199275,22.8307692 11.4153846,22.8307692 C5.11084178,22.8307692 3.55271368e-15,17.7199275 3.55271368e-15,11.4153846 C3.55271368e-15,5.11084178 5.11084178,0 11.4153846,0 Z M11.4153846,2.15384615 C6.30037816,2.15384615 2.15384615,6.30037816 2.15384615,11.4153846 C2.15384615,16.5303911 6.30037816,20.6769231 11.4153846,20.6769231 C16.5303911,20.6769231 20.6769231,16.5303911 20.6769231,11.4153846 C20.6769231,6.30037816 16.5303911,2.15384615 11.4153846,2.15384615 Z M10.5538462,4.66666667 C10.9503583,4.66666667 11.2717949,4.98810326 11.2717949,5.38461538 C11.2717949,5.78112751 10.9503583,6.1025641 10.5538462,6.1025641 C8.09547096,6.1025641 6.1025641,8.09547096 6.1025641,10.5538462 C6.1025641,10.9503583 5.78112751,11.2717949 5.38461538,11.2717949 C4.98810326,11.2717949 4.66666667,10.9503583 4.66666667,10.5538462 C4.66666667,7.3024467 7.3024467,4.66666667 10.5538462,4.66666667 Z" id="Combined-Shape"></path>
            </g>
        </g>
    </g>
</svg>