<svg xmlns="http://www.w3.org/2000/svg" width="26" height="31" viewBox="0 0 26 31">
    <g fill="#0C3071" fill-rule="nonzero">
        <path d="M23.04 0H2.56A2.563 2.563 0 0 0 0 2.56v25.6a2.563 2.563 0 0 0 2.56 2.56h20.48a2.563 2.563 0 0 0 2.56-2.56V2.56A2.563 2.563 0 0 0 23.04 0zm1.536 28.16c0 .848-.688 1.536-1.536 1.536H2.56a1.536 1.536 0 0 1-1.536-1.536V2.56c0-.848.688-1.536 1.536-1.536h20.48c.848 0 1.536.688 1.536 1.536v25.6z"/>
        <path d="M23.04 2.048H2.56a.512.512 0 0 0-.512.512v7.168c0 .283.23.512.512.512h20.48c.283 0 .512-.23.512-.512V2.56a.512.512 0 0 0-.512-.512zm-.512 7.168H3.072V3.072h19.456v6.144zM23.04 11.264H2.56a.512.512 0 0 0-.512.512V28.16c0 .283.23.512.512.512h20.48c.283 0 .512-.23.512-.512V11.776a.512.512 0 0 0-.512-.512zm-.512 8.192h-9.216v-7.168h9.216v7.168zM3.072 12.288h9.216v7.168H3.072v-7.168zm0 8.192h9.216v7.168H3.072V20.48zm19.456 7.168h-9.216V20.48h9.216v7.168z"/>
        <path d="M9.728 15.36H8.192v-1.536a.512.512 0 1 0-1.024 0v1.536H5.632a.512.512 0 1 0 0 1.024h1.536v1.536a.512.512 0 0 0 1.024 0v-1.536h1.536a.512.512 0 1 0 0-1.024zM15.854 17.576c.2.2.524.2.724 0l1.086-1.086 1.086 1.086a.512.512 0 0 0 .724-.724l-1.086-1.086 1.086-1.086a.512.512 0 1 0-.724-.724l-1.086 1.086-1.086-1.086a.512.512 0 1 0-.724.724l1.086 1.086-1.086 1.086c-.2.2-.2.524 0 .724zM9.728 24.064H5.632a.512.512 0 0 0 0 1.024h4.096a.512.512 0 1 0 0-1.024zM15.872 25.6h4.096a.512.512 0 1 0 0-1.024h-4.096a.512.512 0 1 0 0 1.024zM15.872 24.064h4.096a.512.512 0 1 0 0-1.024h-4.096a.512.512 0 1 0 0 1.024zM19.968 5.632V4.608h1.024v1.024a.512.512 0 0 0 1.024 0V4.608c0-.566-.458-1.024-1.024-1.024h-1.024c-.566 0-1.024.458-1.024 1.024v1.024a.512.512 0 0 0 1.024 0z"/>
        <path d="M19.968 8.704h1.024c.566 0 1.024-.458 1.024-1.024V6.656a.512.512 0 0 0-1.024 0V7.68h-1.024V6.656a.512.512 0 0 0-1.024 0V7.68c0 .566.458 1.024 1.024 1.024z"/>
    </g>
</svg>
