<svg xmlns="http://www.w3.org/2000/svg" width="34" height="27" viewBox="0 0 34 27">
    <g fill="#0C3071" fill-rule="nonzero">
        <path d="M32.407 9.684l-.734-.778-2.578-6.948A3.023 3.023 0 0 0 26.28 0H7.87a3.013 3.013 0 0 0-2.816 1.958L2.513 8.82l-1.059.98A4.137 4.137 0 0 0 0 12.945v10.123a3.01 3.01 0 0 0 3.01 2.995h1.9a3.01 3.01 0 0 0 3.01-2.995V21.6h17.856v1.469a3.01 3.01 0 0 0 3.01 2.995h1.9a3.01 3.01 0 0 0 3.01-2.995v-10.39a4.175 4.175 0 0 0-1.289-2.995zM6.408 2.448A1.557 1.557 0 0 1 7.87 1.44h18.417c.648 0 1.231.403 1.462 1.008l2.246 6.048h-1.677a4.931 4.931 0 0 0-5.61-4.162 4.934 4.934 0 0 0-4.16 4.162H4.161l2.246-6.048zm20.44 6.048h-6.846a3.501 3.501 0 0 1 4.147-2.707 3.506 3.506 0 0 1 2.7 2.707zM6.48 23.069a1.566 1.566 0 0 1-1.57 1.555h-1.9a1.566 1.566 0 0 1-1.57-1.555v-1.887c.432.281 1 .418 1.57.418h3.47v1.469zm25.776 0a1.566 1.566 0 0 1-1.57 1.555h-1.9a1.57 1.57 0 0 1-1.57-1.555V21.6h3.47c.57 0 1.138-.137 1.57-.418v1.887zm-1.57-2.909H3.01a1.553 1.553 0 0 1-1.57-1.54v-5.674c0-.792.353-1.548.958-2.06l.028-.028.98-.922h27.266l.691.742c.007.014.029.021.036.036.54.51.85 1.224.85 1.965v5.94h.007a1.558 1.558 0 0 1-1.57 1.541z"/>
        <path d="M9.504 12.816h-5.4a.722.722 0 0 0-.72.72v3.744c0 .396.324.72.72.72h5.4c.396 0 .72-.324.72-.72v-3.744a.722.722 0 0 0-.72-.72zm-.72 3.744h-3.96v-2.304h3.96v2.304zM29.592 12.816h-5.4a.722.722 0 0 0-.72.72v3.744c0 .396.324.72.72.72h5.4c.396 0 .72-.324.72-.72v-3.744a.722.722 0 0 0-.72-.72zm-.72 3.744h-3.96v-2.304h3.96v2.304zM20.326 15.84H13.37a.722.722 0 0 0-.72.72c0 .396.324.72.72.72h6.956c.396 0 .72-.324.72-.72a.722.722 0 0 0-.72-.72zM20.326 13.608H13.37a.722.722 0 0 0-.72.72c0 .396.324.72.72.72h6.956c.396 0 .72-.324.72-.72a.722.722 0 0 0-.72-.72z"/>
    </g>
</svg>
