<svg xmlns="http://www.w3.org/2000/svg" width="25" height="31" viewBox="0 0 25 31">
    <g fill="#0C3071" fill-rule="nonzero">
        <path d="M21.068 4.025h-2.78V2.782c0-.402-.438-.585-.84-.585H15.29C14.778.734 13.498.002 12.035.002A3.328 3.328 0 0 0 8.78 2.197H6.659c-.403 0-.805.183-.805.585v1.243h-2.78A3.109 3.109 0 0 0 .004 6.987v20.956c0 1.609 1.462 2.78 3.072 2.78h17.993c1.609 0 3.072-1.171 3.072-2.78V6.988a3.109 3.109 0 0 0-3.072-2.963zM7.317 3.66h2.011A.805.805 0 0 0 10.023 3a2.121 2.121 0 0 1 2.012-1.645c.958.029 1.773.708 1.975 1.645.065.36.366.631.73.659h2.086v2.925h-9.51V3.66zm15.36 24.283c0 .805-.805 1.317-1.61 1.317H3.076c-.805 0-1.61-.512-1.61-1.317V6.988a1.646 1.646 0 0 1 1.61-1.5h2.779v1.865c.039.41.394.717.805.695h10.788a.804.804 0 0 0 .841-.695V5.488h2.78c.84.015 1.534.662 1.609 1.5v20.955z"/>
        <path d="M9.255 16.35a.731.731 0 0 0-1.024-.037l-2.34 2.231-.988-1.024a.731.731 0 0 0-1.024-.036.768.768 0 0 0 0 1.06l1.5 1.536c.13.145.317.226.511.22a.731.731 0 0 0 .512-.22l2.853-2.706a.695.695 0 0 0 0-1.024zM19.751 17.922H11.34a.731.731 0 1 0 0 1.463h8.411a.731.731 0 1 0 0-1.463zM9.255 10.498a.731.731 0 0 0-1.024-.036l-2.34 2.23-.988-1.023a.731.731 0 0 0-1.024-.037.768.768 0 0 0 0 1.06l1.5 1.537c.13.145.317.225.511.22a.731.731 0 0 0 .512-.22l2.853-2.707a.695.695 0 0 0 0-1.024zM19.751 12.07H11.34a.731.731 0 1 0 0 1.464h8.411a.731.731 0 1 0 0-1.463zM9.255 22.201a.731.731 0 0 0-1.024-.036l-2.34 2.23-.988-1.024a.731.731 0 0 0-1.024-.036.768.768 0 0 0 0 1.06l1.5 1.536c.13.146.317.226.511.22a.731.731 0 0 0 .512-.22l2.853-2.706a.695.695 0 0 0 0-1.024zM19.751 23.774H11.34a.731.731 0 1 0 0 1.463h8.411a.731.731 0 1 0 0-1.463z"/>
    </g>
</svg>
