<?xml version="1.0" encoding="utf-8"?>
<!-- Generator: Adobe Illustrator 23.0.3, SVG Export Plug-In . SVG Version: 6.00 Build 0)  -->
<svg version="1.1" id="Capa_1" xmlns="http://www.w3.org/2000/svg" xmlns:xlink="http://www.w3.org/1999/xlink" x="0px" y="0px"
	 viewBox="0 0 559.4 556" style="enable-background:new 0 0 559.4 556;" xml:space="preserve">
<style type="text/css">
	.st0{fill:#0C3071;}
</style>
<path class="st0" d="M27.1,515.6c0-146,0-292,0-438c0.4-0.9,0.9-1.7,1.3-2.6c4.1-10.5,11.8-16.2,23-17.1c3.1-0.3,6.2,0,10.1,0
	c0-4.8-0.6-9,0.1-13c2.1-11.5,9.7-18,20.5-21.3c111.3,0,222.7,0,334,0c3.8,2,8,3.4,11.3,6c7.5,5.9,9.4,14.4,9.4,23.7
	c-0.1,56.9,0,113.9-0.1,170.8c0,4.4,1.1,6.7,5.4,8.5c29.7,12.5,59.3,25.3,88.8,38.3c3.1,1.4,5.5,4.4,8.2,6.7c0,44.7,0,89.3,0,134
	c-0.3,1.3-0.7,2.5-0.9,3.8c-3.3,21.6-12.9,39.9-29.8,53.7c-11.3,9.2-23.4,17.5-35.4,26c-19.2,13.6-38.6,27-57.9,40.6
	c-2.7,0-5.3,0-8,0c-3.9-2.4-7.7-4.8-11.2-7c-4.8,2.4-9.3,4.7-13.8,7c-111.7,0-223.3,0-335,0C37,532.4,30.5,525.5,27.1,515.6z
	 M379.5,518.2c0.1-0.4,0.1-0.9,0.2-1.3c-13.5-9.7-27.1-19.3-40.5-29.1c-3.2-2.4-6.5-3.4-10.5-3.4c-81.8,0.1-163.7,0.1-245.5,0.1
	c-2.2,0-4.4,0-6.5-0.4c-4.7-1-7.2-4.5-6.9-9c0.3-4.2,3.3-7.1,7.9-7.5c2-0.2,4-0.1,6-0.1c73.5,0,147,0,220.5,0c1.9,0,3.8,0,6.3,0
	c-3.9-4.7-7.5-8.6-10.5-12.9c-2.1-3.2-4.5-4.1-8.2-4.1c-19.2,0.2-38.3,0.1-57.5,0.1c-4.2,0-8.1-0.7-10.2-4.9
	c-3.1-6.3,1.2-12.4,9.2-12.4c16.3-0.2,32.7-0.1,49-0.1c1.8,0,3.5,0,5.6,0c-1.1-4.3-2.5-7.7-2.8-11.3c-0.4-4.9-2.7-5.7-7.1-5.7
	c-65,0.1-130,0.1-195,0.1c-2.2,0-4.4,0-6.5-0.4c-4.5-0.8-7-4.1-6.8-8.5c0.2-4.5,2.7-7.1,7-7.8c2.1-0.4,4.3-0.4,6.5-0.4
	c64.3,0,128.7,0,193,0c2.1,0,4.2,0,6.5,0c0-5.9,0-11.2,0-16.9c-2.1,0-3.9,0-5.7,0c-13.8,0-27.7,0.1-41.5-0.1c-2.6,0-5.8-0.1-7.6-1.6
	c-2.2-1.8-4.4-5.1-4.3-7.6c0.1-2.5,2.8-5.3,5-7.2c1.4-1.2,4.1-1,6.3-1c14.2-0.1,28.3,0,42.5,0c1.8,0,3.5,0,5.3,0c0-5.9,0-11.2,0-17
	c-2.2,0-4.2,0-6.2,0c-64.5,0-129,0-193.5,0c-2.2,0-4.4,0.1-6.5-0.3c-4-0.8-6.4-3.3-6.8-7.5c-0.3-4.2,1.6-7.2,5.5-8.4
	c2.3-0.7,4.9-0.8,7.4-0.8c64.7,0,129.3,0,194,0c1.9,0,3.9,0,5.8,0c0-6,0-11.3,0-17c-16.7,0-33.1,0.1-49.4,0c-6.1,0-10.1-3.8-10-8.9
	c0.1-4.9,4-8.2,10-8.2c11-0.1,22,0,33,0c5.4,0,10.9,0,16.4,0c0-5.9,0-11.3,0-17c-2.3,0-4.3,0-6.3,0c-64.5,0-129,0-193.5,0
	c-1.7,0-3.3,0.1-5-0.1c-5-0.5-8.1-3.8-8.1-8.5c0-4.6,3.2-7.9,8.2-8.4c1.7-0.2,3.3-0.1,5-0.1c70.7,0,141.3-0.2,212,0.2
	c10.6,0,20.3-1.5,29.8-6.3c7.3-3.7,15-6.7,22.5-10c-0.1-0.3-0.2-0.7-0.3-1c-1.8,0-3.5,0-5.3,0c-35.2,0-70.3,0-105.5,0
	c-2.3,0-4.7-0.1-6.9-0.7c-4.1-1.1-6.1-4.2-5.9-8.2c0.2-4.3,2.8-7,7-7.9c1.5-0.3,3-0.2,4.5-0.2c37.7,0,75.3,0,113,0
	c9.7,0,12.7,3.3,11.5,13c7.5-3.3,14.6-6.7,22-9.5c3.2-1.3,4.1-3,4.1-6.3c-0.2-14.5-0.1-29-0.1-43.5c0-1.6-0.2-3.2-0.3-5
	c-2.4,0-4.3,0-6.1,0c-22.8,0-45.7,0-68.5,0c-16.9,0-27.4-10.5-27.4-27.4c0-23,0-46,0-69c0-1.8,0-3.6,0-5.6c-1.6-0.1-2.7-0.3-3.8-0.3
	c-74.7,0-149.3,0-224,0c-8.2,0-11.1,3.1-11.1,11.2c0,140.5,0,281,0,421.5c0,8.2,2.9,11.1,11.2,11.1c106.3,0,212.7,0,319,0
	C376,518.6,377.8,518.3,379.5,518.2z M419.4,222.9c0.1-2.2,0.2-3.4,0.2-4.5c0-55.3,0-110.7,0-166c0-9.1-2.8-11.8-12.1-11.8
	c-105.8,0-211.6,0-317.5,0c-1.5,0-3-0.1-4.5,0.2c-4,0.8-6.7,3.1-7.2,7.2c-0.4,3.1-0.1,6.2-0.1,9.7c2.7,0,4.9,0,7,0
	c67.7,0,135.3,0,203-0.1c4.4,0,7.9,1.1,11.1,4.4c32.8,32.9,65.7,65.8,98.7,98.6c3.2,3.2,4.6,6.7,4.6,11.1c-0.1,12.8,0,25.7,0,38.5
	c0,3.9,0,7.9,0,13C408.5,219,413.8,219.4,419.4,222.9z M522,348.6c0-19.7-0.1-39.3,0.1-59c0-2.9-0.9-4.4-3.6-5.6
	c-34.7-14.9-69.3-30-104-44.8c-2-0.8-4.9-0.8-6.9,0.1c-34.7,14.9-69.3,29.9-104,44.8c-2.5,1.1-3.5,2.3-3.5,5.1
	c0.1,38.5-0.3,77,0.2,115.5c0.3,22.9,10.3,41.5,28.9,55c26,18.9,52.4,37.3,78.5,56c2.6,1.9,4.3,1.8,6.9-0.1
	c25.6-18.4,51.3-36.5,76.9-54.9c20.3-14.6,30.6-34.6,30.6-59.8C522,383.6,522,366.1,522,348.6z M300.1,87.9c0,1.9,0,3.3,0,4.8
	c0,18.6,0,37.3,0,55.9c0,8.8,2.7,11.5,11.7,11.5c18.5,0,36.9,0,55.4,0c1.5,0,3-0.2,4.7-0.3C347.9,135.7,324.3,112.1,300.1,87.9z"/>
<path class="st0" d="M214.6,194.3c44.2,0,88.3,0,132.5,0c8.6,0,12.8,2.8,12.8,8.5c0,5.9-4.6,8.7-13.3,8.7c-74-0.1-148,0-222,0
	c-14.5,0-29,0.1-43.5,0.1c-2,0-4-0.4-5.8-1c-3.6-1.2-5.3-4-5.3-7.7c0-3.9,1.9-6.8,5.7-7.9c2.2-0.6,4.6-0.6,6.9-0.6
	C126.6,194.3,170.6,194.3,214.6,194.3z"/>
<path class="st0" d="M137.9,245.6c-19,0-38,0-56.9,0c-4.6,0-8.7-0.9-10.5-5.8c-1.7-4.7,0.9-9.6,5.8-10.9c1.6-0.4,3.3-0.4,5-0.4
	c38,0,75.9-0.1,113.9,0.1c3.1,0,7.1,1.4,9.1,3.6c1.6,1.7,1.9,6.5,0.6,8.5c-1.6,2.4-5.4,4.5-8.5,4.7c-8.3,0.6-16.6,0.2-25,0.2
	C160.2,245.5,149,245.5,137.9,245.6C137.9,245.5,137.9,245.6,137.9,245.6z"/>
<path class="st0" d="M138,313.7c-19,0-38,0-56.9-0.1c-2.3,0-5.1,0-6.6-1.3c-2-1.7-4.2-4.7-4.2-7.2c0-2.4,2.2-5.4,4.3-7.1
	c1.5-1.3,4.4-1.4,6.6-1.4c38-0.1,75.9-0.1,113.9,0c8.8,0,14.2,6.7,9.7,12.7c-1.8,2.4-6.1,4.1-9.3,4.2
	C176.3,313.9,157.1,313.7,138,313.7z"/>
<path class="st0" d="M138.1,381.9c-19.1,0-38.3,0-57.4,0c-3.9,0-7.7-0.5-9.7-4.6c-2.4-4.8-0.4-10.1,4.7-11.7
	c1.9-0.6,3.9-0.8,5.9-0.8c38-0.1,75.9-0.1,113.9,0c4,0,8.1,0.6,9.5,4.8c0.8,2.5,1,6.7-0.4,8.2c-2.2,2.3-6.2,3.9-9.4,4
	C176.1,382.1,157.1,381.9,138.1,381.9z"/>
<path class="st0" d="M138,433.2c18.8,0,37.6,0,56.4,0.1c2.6,0,5.7,0.2,7.6,1.6c2,1.5,3.9,4.6,3.8,6.9c-0.1,2.5-2.2,5.4-4.3,7.1
	c-1.5,1.3-4.4,1.5-6.6,1.5c-37.5,0.1-74.9,0.1-112.4,0c-2.1,0-4.3-0.2-6.4-0.6c-4.4-1-6.4-4.2-6.2-8.4c0.2-4.3,2.7-7.1,7.1-7.8
	c2-0.3,4-0.3,6-0.3C101.4,433.2,119.7,433.2,138,433.2z"/>
<path class="st0" d="M210.8,100.5c12.5,0,25-0.3,37.5,0.2c2.8,0.1,6.3,2.4,7.8,4.7c1.2,2,0.9,6.3-0.5,8.1c-1.6,2.1-5.2,3.8-8,3.9
	c-24.6,0.3-49.3,0.2-73.9,0.1c-5.9,0-9.8-3.6-9.9-8.5c-0.1-5.4,3.6-8.6,10.1-8.6C186.1,100.4,198.5,100.5,210.8,100.5z"/>
<path class="st0" d="M103.9,117.5c-7.8,0-15.6,0-23.5,0c-6.7-0.1-10.6-3.3-10.5-8.7c0.1-5.3,3.7-8.3,10.3-8.3
	c15.8-0.1,31.6-0.1,47.4,0c6.4,0,10.3,3.2,10.4,8.4c0.1,5.3-4,8.6-10.7,8.7C119.5,117.6,111.7,117.5,103.9,117.5z"/>
<path class="st0" d="M317.3,354.9c0-16.7,0.1-33.3-0.1-50c-0.1-5.6,2.2-9.1,7.2-11.3c27.5-11.8,55-23.8,82.5-35.5
	c2.4-1,6-0.9,8.4,0.1c27.6,11.6,55.1,23.6,82.6,35.4c4.8,2.1,7.2,5.5,7.2,10.9c-0.1,33,0.2,66-0.1,99c-0.1,16.2-6.3,30.3-19.3,40
	c-22.6,17-45.9,33.1-68.9,49.6c-3.9,2.8-7.8,2.7-11.6,0c-22.6-16.2-45.4-32.1-67.7-48.7c-13.7-10.2-20.1-24.5-20.2-41.5
	C317.2,386.9,317.3,370.9,317.3,354.9z M487.7,358.5c0-15.3-0.1-30.7,0.1-46c0-3.2-0.7-5-4-6.4c-23.1-9.8-46.1-19.9-69.3-29.7
	c-2-0.8-5-0.9-7,0c-23.3,9.9-46.5,20-69.7,29.9c-2.7,1.1-3.8,2.6-3.8,5.6c0.1,30.5-0.1,61,0.2,91.5c0.1,12,5.2,21.8,15.2,28.9
	c19.3,13.7,38.6,27.4,57.8,41.2c2.7,2,4.6,2.2,7.4,0.1c18.8-13.5,37.6-26.9,56.6-40.3c11.2-7.9,16.7-18.5,16.5-32.3
	C487.6,386.9,487.7,372.7,487.7,358.5z"/>
<path class="st0" d="M392.5,404.3c8.1-10.1,16-20,23.9-29.8c12.5-15.6,24.9-31.2,37.4-46.9c0.3-0.4,0.6-0.8,0.9-1.2
	c3.8-4.3,8.9-5.2,12.8-2.3c4,3.1,4.4,8.1,0.7,12.8c-7.5,9.6-15.1,19-22.7,28.5c-14.5,18.1-29,36.1-43.4,54.2
	c-4.7,5.8-8.6,6.4-14.5,2.1c-10.6-7.8-21.1-15.7-31.6-23.6c-4.8-3.6-5.9-8.3-2.9-12.5c2.9-4.2,8.3-4.8,13.3-1.1
	C374.9,390.9,383.5,397.5,392.5,404.3z"/>
</svg>
