<svg xmlns="http://www.w3.org/2000/svg" width="33" height="33" viewBox="0 0 33 33">
    <g fill="#0C3071" fill-rule="nonzero">
        <path d="M27.97 4.799A16.277 16.277 0 0 0 16.383 0c-4.376 0-8.49 1.704-11.585 4.799A16.277 16.277 0 0 0 0 16.384c0 4.376 1.704 8.49 4.799 11.585a16.277 16.277 0 0 0 11.585 4.799c4.376 0 8.49-1.704 11.585-4.799a16.277 16.277 0 0 0 4.799-11.585c0-4.376-1.704-8.49-4.799-11.585zM16.383 30.848c-7.975 0-14.464-6.489-14.464-14.464C1.92 8.409 8.409 1.92 16.384 1.92c7.975 0 14.464 6.489 14.464 14.464 0 7.975-6.489 14.464-14.464 14.464z"/>
        <path d="M17.412 15.424h-2.056a2.127 2.127 0 0 1-2.125-2.125c0-1.171.953-2.125 2.125-2.125h4.113a.96.96 0 0 0 0-1.92h-2.125V7.13a.96.96 0 0 0-1.92 0v2.124h-.068A4.05 4.05 0 0 0 11.31 13.3a4.05 4.05 0 0 0 4.045 4.045h2.056c1.172 0 2.125.953 2.125 2.125a2.127 2.127 0 0 1-2.125 2.125H13.3a.96.96 0 0 0 0 1.92h2.125v2.124a.96.96 0 0 0 1.92 0v-2.124h.068a4.05 4.05 0 0 0 4.045-4.045 4.05 4.05 0 0 0-4.045-4.045z"/>
    </g>
</svg>
