<svg id="Capa_1" enable-background="new 0 0 511.936 511.936" height="512" viewBox="0 0 511.936 511.936" width="512" xmlns="http://www.w3.org/2000/svg"><g><g><path d="m396.756 0h-281.577c-24.169 0-43.832 19.663-43.832 43.832v424.268c0 8.134 2.234 15.752 6.111 22.287 7.641 12.887 21.685 21.549 37.72 21.549h281.58c16.035 0 30.079-8.662 37.72-21.549 3.876-6.535 6.111-14.154 6.111-22.287v-424.268c-.001-24.169-19.664-43.832-43.833-43.832zm-83.215 15-3.53 14.48c-.708 2.906-3.292 4.936-6.284 4.936h-95.519c-2.991 0-5.575-2.029-6.284-4.936l-3.529-14.48zm112.047 412.565h-234.984c-4.142 0-7.5 3.357-7.5 7.5s3.358 7.5 7.5 7.5h234.984v25.53c0 5.84-1.749 11.276-4.743 15.822-5.16 7.832-14.028 13.014-24.088 13.014h-281.578c-10.06 0-18.928-5.182-24.088-13.014-2.994-4.546-4.743-9.982-4.743-15.822v-25.53h69.313c4.142 0 7.5-3.357 7.5-7.5s-3.358-7.5-7.5-7.5h-69.314v-383.733c0-15.898 12.934-28.832 28.832-28.832h67.777l4.396 18.033c2.351 9.646 10.928 16.383 20.857 16.383h95.519c9.929 0 18.506-6.737 20.857-16.383l4.395-18.033h67.777c15.898 0 28.832 12.934 28.832 28.832v383.733z"/><circle cx="255.968" cy="469.751" r="10"/><g><path d="m387.968 77.785h-39.273c-4.142 0-7.5 3.357-7.5 7.5s3.358 7.5 7.5 7.5h39.273c1.378 0 2.5 1.121 2.5 2.5v286.623c0 1.379-1.122 2.5-2.5 2.5h-264c-1.378 0-2.5-1.121-2.5-2.5v-286.623c0-1.379 1.122-2.5 2.5-2.5h190.066c4.142 0 7.5-3.357 7.5-7.5s-3.358-7.5-7.5-7.5h-190.066c-9.649 0-17.5 7.851-17.5 17.5v286.623c0 9.649 7.851 17.5 17.5 17.5h264c9.649 0 17.5-7.851 17.5-17.5v-286.623c0-9.649-7.851-17.5-17.5-17.5z"/><path d="m163.248 130.93h92.972c4.142 0 7.5-3.357 7.5-7.5s-3.358-7.5-7.5-7.5h-92.972c-4.142 0-7.5 3.357-7.5 7.5s3.358 7.5 7.5 7.5z"/><path d="m348.688 115.93h-30.695c-4.142 0-7.5 3.357-7.5 7.5s3.358 7.5 7.5 7.5h30.695c4.142 0 7.5-3.357 7.5-7.5s-3.358-7.5-7.5-7.5z"/><path d="m317.992 165.93h30.695c4.142 0 7.5-3.357 7.5-7.5s-3.358-7.5-7.5-7.5h-30.695c-4.142 0-7.5 3.357-7.5 7.5s3.358 7.5 7.5 7.5z"/><path d="m317.992 200.93h30.695c4.142 0 7.5-3.357 7.5-7.5s-3.358-7.5-7.5-7.5h-30.695c-4.142 0-7.5 3.357-7.5 7.5s3.358 7.5 7.5 7.5z"/><path d="m163.248 165.93h51.724c4.142 0 7.5-3.357 7.5-7.5s-3.358-7.5-7.5-7.5h-51.724c-4.142 0-7.5 3.357-7.5 7.5s3.358 7.5 7.5 7.5z"/><path d="m163.248 200.93h92.972c4.142 0 7.5-3.357 7.5-7.5s-3.358-7.5-7.5-7.5h-92.972c-4.142 0-7.5 3.357-7.5 7.5s3.358 7.5 7.5 7.5z"/><path d="m183.528 361.263c4.142 0 7.5-3.357 7.5-7.5v-4.157c11.081-3.09 18.179-12.672 19.769-22.129 2.09-12.432-4.655-23.665-16.784-27.953-.984-.348-1.983-.707-2.985-1.076v-19.412c1.337.634 2.168 1.276 2.385 1.454.189.184.25.222.481.399l2.229 1.709c3.288 2.521 7.995 1.898 10.516-1.389 2.52-3.287 1.898-7.995-1.389-10.516l-2-1.533c-2.428-2.134-6.71-4.66-12.221-5.858v-3.039c0-4.143-3.358-7.5-7.5-7.5s-7.5 3.357-7.5 7.5v3.548c-.222.062-.438.106-.661.173-8.211 2.474-14.341 9.475-15.999 18.271-1.525 8.097 1.12 15.944 6.904 20.481 2.566 2.012 5.669 3.859 9.756 5.764v26.71c-2.464-.493-4.532-1.505-7.616-3.522-3.466-2.267-8.115-1.297-10.382 2.171-2.268 3.466-1.296 8.114 2.171 10.382 6.002 3.926 10.431 5.52 15.827 6.101v3.421c-.001 4.142 3.357 7.5 7.499 7.5zm7.5-46.697c5.508 2.968 5.357 8.16 4.977 10.423-.502 2.984-2.188 6.101-4.977 8.187zm-15.498-23.632c-1.32-1.035-1.891-3.406-1.421-5.901.143-.76.612-2.604 1.919-4.218v10.49c-.167-.124-.34-.247-.498-.371z"/><path d="m376.884 230.434c0-4.143-3.358-7.5-7.5-7.5h-226.832c-4.142 0-7.5 3.357-7.5 7.5s3.358 7.5 7.5 7.5h226.832c4.142 0 7.5-3.358 7.5-7.5z"/><path d="m348.688 283.225h-30.695c-4.142 0-7.5 3.357-7.5 7.5s3.358 7.5 7.5 7.5h30.695c4.142 0 7.5-3.357 7.5-7.5s-3.358-7.5-7.5-7.5z"/><path d="m348.688 315.802h-111.096c-4.142 0-7.5 3.357-7.5 7.5s3.358 7.5 7.5 7.5h111.096c4.142 0 7.5-3.357 7.5-7.5s-3.358-7.5-7.5-7.5z"/></g></g></g></svg>