<svg xmlns="http://www.w3.org/2000/svg" width="36" height="30" viewBox="0 0 36 30">
    <g fill="#0C3071" fill-rule="nonzero">
        <path d="M19.115 20.31h9.557c.358 0 .597-.239.597-.597v-5.376c0-.358-.239-.597-.597-.597h-9.557c-.359 0-.598.239-.598.597v5.376c0 .358.24.597.598.597zm.597-5.376h8.363v4.182h-8.363v-4.182zM2.987 12.545h4.778c.359 0 .598-.239.598-.597 0-.359-.24-.598-.598-.598H2.987c-.359 0-.598.24-.598.598s.24.597.598.597zM10.155 12.545h4.778c.359 0 .598-.239.598-.597 0-.359-.24-.598-.598-.598h-4.778c-.359 0-.598.24-.598.598s.24.597.598.597zM2.987 14.934h7.765c.358 0 .597-.239.597-.597s-.239-.597-.597-.597H2.987c-.359 0-.598.239-.598.597s.24.597.598.597zM14.933 13.74h-1.792c-.358 0-.597.239-.597.597s.239.597.597.597h1.792c.359 0 .598-.239.598-.597s-.24-.597-.598-.597z"/>
        <path d="M35.302 6.333c-.418-.538-.955-.837-1.612-.896l-1.434-.174V2.39a2.396 2.396 0 0 0-2.39-2.389H2.39A2.396 2.396 0 0 0 0 2.391v19.114c0 1.079.725 1.996 1.712 2.29a2.325 2.325 0 0 0 2.111 2.37L31.42 29.27h.239c1.194 0 2.27-.896 2.389-2.03L35.84 8.064a2.322 2.322 0 0 0-.538-1.732zM1.195 4.183H31.06v3.583H1.195V4.182zm1.194-2.987h27.478c.657 0 1.194.537 1.194 1.194v.598H1.195V2.39c0-.657.537-1.194 1.194-1.194zM1.195 21.505V8.96H31.06v12.544c0 .657-.537 1.195-1.194 1.195H2.389a1.198 1.198 0 0 1-1.194-1.195zm33.45-13.679L32.853 27c-.06.657-.657 1.135-1.314 1.076L4.002 24.969a1.208 1.208 0 0 1-1.075-1.075h26.94a2.396 2.396 0 0 0 2.389-2.389V6.392l1.374.12c.299 0 .597.18.776.418.18.239.3.597.24.896z"/>
    </g>
</svg>
