<svg xmlns="http://www.w3.org/2000/svg" width="26" height="34" viewBox="0 0 26 34">
    <g fill="#0C3071" fill-rule="nonzero">
        <path d="M.007 3.95V33.29c0 .312.252.564.564.564h21.442a.564.564 0 0 0 .564-.564V9.593c0-.013-.006-.024-.007-.036a.532.532 0 0 0-.03-.145c-.006-.018-.01-.036-.018-.053a.559.559 0 0 0-.113-.166l-5.642-5.642a.547.547 0 0 0-.364-.16c-.01 0-.021-.005-.033-.005H.57a.564.564 0 0 0-.563.564zM20.65 9.028h-3.716V5.312l3.716 3.716zM1.135 4.514h14.67v5.079c0 .311.253.564.565.564h5.078v22.57H1.135V4.514z"/>
        <path d="M23.705 29.341v1.129h1.693a.564.564 0 0 0 .564-.564V.564A.564.564 0 0 0 25.398 0H3.956a.564.564 0 0 0-.564.564v1.693h1.129V1.128h20.313v28.213h-1.129z"/>
        <path d="M4.52 11.285h13.543v1.129H4.52zM4.52 7.9h4.515v1.128H4.52zM4.52 14.67h9.029v1.13H4.52zM14.677 14.67h3.386v1.13h-3.386zM4.52 18.056h13.543v1.129H4.52zM4.52 24.827h13.543v1.129H4.52zM9.599 21.442h8.464v1.128H9.599zM4.52 21.442h3.95v1.128H4.52zM4.52 28.213h2.258v1.128H4.52zM7.906 28.213h10.157v1.128H7.906z"/>
    </g>
</svg>
