<svg xmlns="http://www.w3.org/2000/svg" width="39" height="27" viewBox="0 0 39 27">
    <path fill="#0C3071" fill-rule="nonzero" d="M38.016 10.237l-3.584-4.78a.64.64 0 0 0-.512-.257h-.002a3.2 3.2 0 1 0-5.116 0H28.8a.64.64 0 0 0-.453.187l-3.84 3.84-2.377 2.379a3.2 3.2 0 1 0-5.86 0l-2.377-2.378-3.84-3.84A.64.64 0 0 0 9.6 5.2h-.002a3.2 3.2 0 1 0-5.116 0H4.48a.64.64 0 0 0-.512.256L.381 10.239a1.905 1.905 0 0 0 2.97 2.382l.489-.57v1.438L2.719 24.856a1.895 1.895 0 0 0 1.883 2.104h.035a1.892 1.892 0 0 0 1.883-1.681l.52-4.395.52 4.39c.106.96.918 1.687 1.883 1.686h.035a1.895 1.895 0 0 0 1.884-2.096L10.24 13.489v-2.904l2.747 2.748L16 16.345v3.512l-.967 4.836a1.897 1.897 0 1 0 3.72.741l.447-2.243.448 2.248a1.897 1.897 0 1 0 3.717-.756l-.965-4.826v-3.512l3.013-3.012 2.747-2.748v2.831l-1.887 5.662a.64.64 0 0 0 .607.842h.644l-.487 4.938a1.897 1.897 0 0 0 1.885 2.102h.032a1.894 1.894 0 0 0 1.884-1.69l.522-5.25.522 5.257c.107.96.92 1.685 1.884 1.683h.032a1.897 1.897 0 0 0 1.885-2.102l-.487-4.938h.644a.64.64 0 0 0 .607-.842l-1.887-5.662V12.05l.486.568a1.904 1.904 0 0 0 2.97-2.38zM29.44 3.28a1.92 1.92 0 1 1 3.84 0 1.92 1.92 0 0 1-3.84 0zM19.2 8.4a1.92 1.92 0 1 1 0 3.84 1.92 1.92 0 0 1 0-3.84zM5.12 3.28a1.92 1.92 0 1 1 3.84 0 1.92 1.92 0 0 1-3.84 0zm4.933 5.307a.64.64 0 0 0-1.093.453v4.48l.003.063 1.126 11.414a.615.615 0 0 1-.611.683h-.035a.616.616 0 0 1-.611-.552l-1.156-9.763a.64.64 0 0 0-1.272 0l-1.156 9.768a.615.615 0 0 1-.611.547h-.035a.615.615 0 0 1-.61-.691l1.125-11.406a.632.632 0 0 0 .003-.063v-3.2a.64.64 0 0 0-1.126-.416L2.38 11.788a.625.625 0 0 1-.974-.781L4.8 6.48h4.535L12.8 9.945v1.39l-2.747-2.748zm11.254 7.04a.64.64 0 0 0-.187.453v3.84c0 .042.004.084.012.126l.98 4.896a.488.488 0 0 1 .013.124.617.617 0 0 1-1.222.118l-1.075-5.39a.64.64 0 0 0-1.256 0l-1.074 5.385a.619.619 0 0 1-1.08.279.623.623 0 0 1-.13-.516l.98-4.896a.642.642 0 0 0 .012-.126v-3.84a.64.64 0 0 0-.187-.453l-3.013-3.012v-1.39l2.107 2.108a.64.64 0 0 0 .453.187h5.12a.64.64 0 0 0 .453-.187l2.107-2.108v1.39l-3.013 3.012zm15.18-3.617a.608.608 0 0 1-.468-.225l-1.613-1.881a.64.64 0 0 0-1.126.416v3.2a.64.64 0 0 0 .033.202l1.639 4.918h-.462a.64.64 0 0 0-.637.703l.557 5.645v.008a.617.617 0 0 1-.612.684h-.032a.612.612 0 0 1-.61-.537l-.59-5.926a.64.64 0 0 0-.636-.577h-1.14a.64.64 0 0 0-.636.577l-.588 5.919a.613.613 0 0 1-.612.544h-.032a.617.617 0 0 1-.612-.684v-.009l.557-5.644a.64.64 0 0 0-.637-.703h-.462l1.64-4.918a.64.64 0 0 0 .032-.202V9.04a.64.64 0 0 0-1.093-.453L25.6 11.335v-1.39l3.465-3.465H33.6l3.39 4.522a.626.626 0 0 1-.504 1.008z"/>
</svg>
