<svg xmlns="http://www.w3.org/2000/svg" width="34" height="34" viewBox="0 0 34 34">
    <g fill="#0C3071" fill-rule="nonzero">
        <path d="M31.92 5.6h-3.36V1.68A1.68 1.68 0 0 0 26.88 0h-16.8A1.68 1.68 0 0 0 8.4 1.68v6.16H1.68A1.68 1.68 0 0 0 0 9.52v22.4c0 .928.752 1.68 1.68 1.68h16.8a1.68 1.68 0 0 0 1.68-1.68v-.56h11.76a1.68 1.68 0 0 0 1.68-1.68V7.28a1.68 1.68 0 0 0-1.68-1.68zM28 6.72h1.12v1.548l-.056-.118a.583.583 0 0 0-1.002 0l-.057.118L28 6.72zm-5.04-5.6h1.12v.952l-.094-.141a.581.581 0 0 0-.932 0l-.094.141V1.12zm-13.44.56c0-.31.25-.56.56-.56h11.76v2.8a.56.56 0 0 0 1.026.31l.654-.982.654.981A.56.56 0 0 0 25.2 3.92v-2.8h1.68c.31 0 .56.25.56.56V5.6H15.12a1.68 1.68 0 0 0-1.68 1.68v.56H9.52V1.68zm5.04 7.28h1.12v1.548l-.059-.118a.583.583 0 0 0-1.002 0l-.059.118V8.96zm4.48 22.96c0 .31-.25.56-.56.56H1.68a.56.56 0 0 1-.56-.56V9.52c0-.31.25-.56.56-.56h11.76v3.92a.56.56 0 0 0 1.061.25l.619-1.238.619 1.238a.56.56 0 0 0 1.061-.25V8.96h1.68c.31 0 .56.25.56.56v22.4zm13.44-2.24c0 .31-.25.56-.56.56H20.16V9.52a1.68 1.68 0 0 0-1.68-1.68h-3.92v-.56c0-.31.25-.56.56-.56h11.76v3.92a.56.56 0 0 0 1.064.25l.616-1.238.616 1.238a.56.56 0 0 0 1.064-.25V6.72h1.68c.31 0 .56.25.56.56v22.4z"/>
        <path d="M21.28 12.32h8.96v1.12h-8.96zM21.28 14.56h8.96v1.12h-8.96zM28 16.8h2.24v1.12H28zM21.28 16.8h5.6v1.12h-5.6zM25.76 19.04h4.48v1.12h-4.48zM21.28 19.04h3.36v1.12h-3.36zM21.28 21.28h5.6v1.12h-5.6zM28 21.28h2.24v1.12H28zM21.28 23.52h2.24v1.12h-2.24zM24.64 23.52h5.6v1.12h-5.6zM21.28 25.76h4.48v1.12h-4.48zM26.88 25.76H28v1.12h-1.12zM29.12 25.76h1.12v1.12h-1.12zM3.36 15.68h3.36v1.12H3.36zM7.84 15.68h8.96v1.12H7.84zM3.36 24.64h3.36v1.12H3.36zM7.84 24.64h8.96v1.12H7.84zM3.36 26.88h4.48V28H3.36zM8.96 26.88h5.6V28h-5.6zM15.68 26.88h1.12V28h-1.12zM3.36 17.92h1.12v1.12H3.36zM5.6 17.92h5.6v1.12H5.6zM12.32 17.92h4.48v1.12h-4.48zM3.36 20.16H16.8v1.12H3.36zM3.36 22.4H16.8v1.12H3.36z"/>
    </g>
</svg>
