<svg xmlns="http://www.w3.org/2000/svg" width="23" height="26" viewBox="0 0 23 26">
    <g fill="#0C3071" fill-rule="nonzero">
        <path d="M20.94 0H7.14c-.66 0-1.2.36-1.5.84l-4.8 4.8c-.48.3-.84.9-.84 1.5v16.2c0 1.02.78 1.8 1.8 1.8H21c1.02 0 1.8-.78 1.8-1.8V1.74C22.74.78 21.96 0 20.94 0zM5.34 3.66V5.4H3.6l1.74-1.74zm15.6 19.74H1.74V7.26h.06l.06-.06H7.2V1.86l.06-.06v-.06H21l-.06 21.66z"/>
        <path d="M17.34 13.8h-12c-.48 0-.9.42-.9.9 0 .48.42.9.9.9h12c.48 0 .9-.42.9-.9 0-.48-.42-.9-.9-.9zM15.54 18H5.34c-.48 0-.9.42-.9.9 0 .48.42.9.9.9h10.2c.48 0 .9-.42.9-.9 0-.48-.42-.9-.9-.9zM13.14 11.4h3.6c1.02 0 1.8-.78 1.8-1.8V6c0-1.02-.78-1.8-1.8-1.8h-3.6c-1.02 0-1.8.78-1.8 1.8v3.6c0 1.02.78 1.8 1.8 1.8zm0-5.4h3.6v3.6h-3.6V6z"/>
    </g>
</svg>
