<svg xmlns="http://www.w3.org/2000/svg" width="31" height="31" viewBox="0 0 31 31">
    <g fill="#0C3071" fill-rule="nonzero">
        <path d="M14.148 20.836a.6.6 0 1 0-.85-.849.6.6 0 0 0 .85.849zM11.307 6.598a6.606 6.606 0 0 0 6.598 6.598 6.606 6.606 0 0 0 6.598-6.598A6.606 6.606 0 0 0 17.905 0a6.606 6.606 0 0 0-6.598 6.598zm11.997 0a5.405 5.405 0 0 1-5.399 5.399 5.405 5.405 0 0 1-5.399-5.399 5.405 5.405 0 0 1 5.4-5.398 5.405 5.405 0 0 1 5.398 5.398z"/>
        <path d="M6.94 30.543a.6.6 0 0 0 .846.004l2.908-2.865a1.813 1.813 0 0 0 .427-1.86l.625-.604c.337-.326.78-.505 1.25-.505h7.974a5.37 5.37 0 0 0 3.765-1.53c.042-.04-.317.382 5.44-6.498a2.402 2.402 0 0 0-.285-3.382 2.405 2.405 0 0 0-3.366.268l-3.54 3.638a2.41 2.41 0 0 0-1.864-.893h-6.69a7.739 7.739 0 0 0-3.003-.6c-2.888 0-5.41 1.334-6.764 3.835a1.792 1.792 0 0 0-1.604.497L.205 22.91a.6.6 0 0 0 0 .846l6.734 6.787zm4.487-13.628c.918 0 1.807.185 2.64.55.076.033.158.05.24.05h6.813c.65 0 1.2.53 1.2 1.2 0 .661-.539 1.2-1.2 1.2h-4.894a.6.6 0 0 0 0 1.2h4.894a2.402 2.402 0 0 0 2.378-2.714c3.424-3.52 3.907-4.014 3.927-4.039a1.204 1.204 0 0 1 1.691-.142c.506.427.57 1.185.141 1.693l-5.38 6.431a4.177 4.177 0 0 1-2.907 1.17h-7.975c-.781 0-1.52.298-2.082.84l-.51.493-4.699-4.7c1.098-2.06 3.16-3.232 5.723-3.232zm-7.52 3.98a.598.598 0 0 1 .743-.083c.104.063-.194-.209 5.196 5.174.24.24.226.621.003.845l-2.48 2.442-5.893-5.938 2.431-2.44zM17.185 3v.702c-.698.248-1.2.914-1.2 1.697 0 .992.808 1.8 1.8 1.8a.6.6 0 0 1 0 1.199c-.256 0-.533-.161-.779-.454a.6.6 0 0 0-.918.772c.32.381.698.647 1.097.781v.7a.6.6 0 1 0 1.2 0v-.703a1.803 1.803 0 0 0 1.2-1.696c0-.992-.808-1.8-1.8-1.8a.6.6 0 0 1 0-1.2c.213 0 .437.11.649.314a.6.6 0 0 0 .834-.862 2.317 2.317 0 0 0-.883-.552v-.699a.6.6 0 1 0-1.2 0z"/>
    </g>
</svg>
