<svg xmlns="http://www.w3.org/2000/svg" width="23" height="27" viewBox="0 0 23 27">
    <g fill="#0C3071" fill-rule="nonzero">
        <path d="M12.041 10.498H10.77a1.019 1.019 0 0 1 0-2.036h2.544a.891.891 0 0 0 0-1.782h-1.017V5.663a.891.891 0 0 0-1.782 0v1.03A2.803 2.803 0 0 0 7.969 9.48c0 1.544 1.256 2.8 2.8 2.8h1.272a1.019 1.019 0 0 1 0 2.035H9.496a.891.891 0 0 0 0 1.782h1.018v1.018a.891.891 0 0 0 1.782 0v-1.03a2.803 2.803 0 0 0 2.545-2.787c0-1.544-1.256-2.8-2.8-2.8z"/>
        <path d="M21.903 0H.907a.891.891 0 0 0-.891.891v22.046c0 .237.094.463.26.63l2.625 2.625a.891.891 0 0 0 1.26 0l1.995-1.995 1.994 1.995a.891.891 0 0 0 1.26 0l1.995-1.995 1.994 1.995a.891.891 0 0 0 1.26 0l1.995-1.995 1.994 1.995a.888.888 0 0 0 1.26 0l2.625-2.625a.891.891 0 0 0 .26-.63V.891a.891.891 0 0 0-.89-.891zm-2.625 24.302l-1.994-1.995a.891.891 0 0 0-1.26 0l-1.995 1.995-1.994-1.995a.891.891 0 0 0-1.26 0L8.78 24.302l-1.994-1.995a.891.891 0 0 0-1.26 0L3.53 24.302l-1.733-1.734V1.782h19.214v20.786l-1.734 1.734z"/>
    </g>
</svg>
