<svg xmlns="http://www.w3.org/2000/svg" width="31" height="31" viewBox="0 0 31 31">
    <g fill="#0C3071" fill-rule="nonzero">
        <path d="M23.245 3.405L15.565.043a.512.512 0 0 0-.41 0l-7.68 3.362a.512.512 0 0 0-.307.469v8.038a5.64 5.64 0 0 0 2.335 4.561l5.308 3.828a.937.937 0 0 0 1.098 0l5.308-3.827a5.64 5.64 0 0 0 2.335-4.561v-8.04a.512.512 0 0 0-.307-.468zm-.717 8.508a4.613 4.613 0 0 1-1.91 3.73l-5.258 3.793-5.258-3.793a4.613 4.613 0 0 1-1.91-3.73V4.209L15.36 1.07l7.168 3.138v7.704z"/>
        <path d="M15.155 2.278L9.523 4.744a.512.512 0 0 0-.307.47v6.699a3.584 3.584 0 0 0 1.485 2.9l4.36 3.144c.178.13.42.13.599 0l4.36-3.144a3.584 3.584 0 0 0 1.484-2.9v-6.7a.512.512 0 0 0-.307-.469l-5.632-2.466a.512.512 0 0 0-.41 0zm5.325 3.27v6.365a2.56 2.56 0 0 1-1.06 2.07l-4.06 2.928-4.06-2.929a2.56 2.56 0 0 1-1.06-2.07V5.549l5.12-2.242 5.12 2.242zM4.242 16.998l-1.108-2.587a1.632 1.632 0 1 0-2.986 1.318l2.006 4.414c.271.598.648 1.141 1.112 1.605l3.156 3.156a1.018 1.018 0 0 0-.278.696v4.096c0 .566.458 1.024 1.024 1.024H12.8c.566 0 1.024-.458 1.024-1.024V25.6c0-.566-.458-1.024-1.024-1.024v-.953a5.365 5.365 0 0 0-1.122-3.353 3.686 3.686 0 0 0-1.707-1.245 10.128 10.128 0 0 1-2.931-1.881 2.355 2.355 0 0 0-2.798-.146zM12.8 29.696H7.168V25.6H12.8v4.096zm-1.922-8.787c.597.778.914 1.734.898 2.714v.953H7.542L3.99 21.024a4.428 4.428 0 0 1-.904-1.304L1.08 15.306a.609.609 0 1 1 1.113-.492l1.145 2.671c.304.713.743 1.36 1.292 1.908l2.338 2.339a.512.512 0 1 0 .724-.724l-2.339-2.34a5.05 5.05 0 0 1-.63-.767 1.331 1.331 0 0 1 1.658.027 10.916 10.916 0 0 0 3.266 2.069c.49.178.918.495 1.231.912z"/>
        <path d="M11.264 27.136h-.512a.512.512 0 1 0 0 1.024h.512a.512.512 0 1 0 0-1.024zM28.566 20.143l2.006-4.414a1.632 1.632 0 1 0-2.986-1.318l-1.105 2.578a2.361 2.361 0 0 0-2.801.153 10.128 10.128 0 0 1-2.931 1.881 3.686 3.686 0 0 0-1.707 1.245 5.365 5.365 0 0 0-1.122 3.355v.953c-.566 0-1.024.458-1.024 1.024v4.096c0 .566.458 1.024 1.024 1.024h5.632c.566 0 1.024-.458 1.024-1.024V25.6c0-.259-.1-.508-.278-.696l3.156-3.156a5.438 5.438 0 0 0 1.112-1.605zm-5.014 9.553H17.92V25.6h5.632v4.096zm-.374-5.12h-4.234v-.953c-.015-.98.3-1.936.898-2.713.312-.417.739-.734 1.228-.913 1.204-.49 2.31-1.19 3.267-2.069A1.331 1.331 0 0 1 26 17.896a5.02 5.02 0 0 1-.635.773l-2.338 2.34a.512.512 0 0 0 .724.723l2.338-2.339a6.042 6.042 0 0 0 1.292-1.907l1.145-2.672a.608.608 0 1 1 1.113.492l-2.006 4.414c-.22.486-.527.928-.904 1.304l-3.55 3.552z"/>
        <path d="M19.968 27.136h-.512a.512.512 0 0 0 0 1.024h.512a.512.512 0 1 0 0-1.024zM12.595 10.854a.512.512 0 1 0-.614.82l2.048 1.536a.512.512 0 0 0 .733-.126l4.096-6.144a.512.512 0 1 0-.852-.568l-3.796 5.694-1.615-1.212z"/>
    </g>
</svg>
