<svg xmlns="http://www.w3.org/2000/svg" width="27" height="27" viewBox="0 0 27 27">
    <g fill="#0C3071" fill-rule="nonzero">
        <path d="M26.835 6.373a1.344 1.344 0 0 0-2.464-.323l-.224.39a.448.448 0 0 0-.61.161L22.4 8.541l-.39-.224a.449.449 0 1 0-.448.775l.39.224-3.808 6.6-.94 2.513-.449.837a1.344 1.344 0 0 0 .072 1.452l-1.008 1.236-.282-.707a.896.896 0 0 0-1.6-.126l-.161.273-.152-1.792a.896.896 0 0 0-1.743-.21l-1.102 3.306a.448.448 0 0 0 .282.565c.044.02.09.032.139.035a.448.448 0 0 0 .426-.304l1.097-3.307.157 1.82a.896.896 0 0 0 1.662.385l.166-.274.278.704a.896.896 0 0 0 1.532.228l1.044-1.321c.115.03.234.045.354.044.48.004.926-.249 1.169-.663l.448-.748 1.707-2.074 3.848-6.68.39.224a.448.448 0 0 1 .166.614l-1.792 3.105a.447.447 0 0 0 .143.631.448.448 0 0 0 .614-.165l1.792-3.105a1.343 1.343 0 0 0-.493-1.837l-.39-.224 1.12-1.94a.448.448 0 0 0-.161-.61l.224-.389c.183-.314.232-.689.134-1.04zm-1.689.125a.448.448 0 0 1 .614-.165.448.448 0 0 1 .166.613l-.224.39-.78-.448.224-.39zM19.04 19.007l-.224-.13-.663-.386.636-1.702 1.411.815-1.16 1.403zM17.696 20.3a.448.448 0 0 1-.134-.587l.224-.39.78.449-.225.385a.448.448 0 0 1-.645.143zm3.015-3.431l-1.55-.896 3.584-6.21 1.55.896-3.584 6.21zm4.032-6.985l-1.55-.896.896-1.55 1.55.896-.896 1.55zM7.07 20.077L5.483 21.66l-.95-.95a.448.448 0 1 0-.632.636l.95.95c.168.166.395.26.632.26a.896.896 0 0 0 .636-.26L7.7 20.709a.448.448 0 0 0-.632-.632z"/>
        <path d="M1.792 21.282a3.808 3.808 0 1 0 7.616 0 .448.448 0 0 0-.896 0 2.912 2.912 0 1 1-1.165-2.33.448.448 0 1 0 .538-.716 3.809 3.809 0 0 0-6.093 3.046zM16.128 3.586a.448.448 0 1 0 0-.896H4.48c-.247 0-.448.2-.448.448V4.93c0 .248.2.448.448.448h11.648a.448.448 0 1 0 0-.896h-11.2v-.896h11.2zM5.824 6.274a.448.448 0 0 0 0 .896h8.96a.448.448 0 1 0 0-.896h-8.96zM17.472 9.41H7.616a.448.448 0 0 0 0 .896h9.856a.448.448 0 1 0 0-.896zM12.992 12.546c0-.247-.2-.448-.448-.448h-8.96a.448.448 0 0 0 0 .896h8.96c.247 0 .448-.2.448-.448zM17.472 12.098h-3.136a.448.448 0 0 0 0 .896h3.136a.448.448 0 1 0 0-.896zM8.064 15.234a.448.448 0 1 0 0-.896h-4.48a.448.448 0 0 0 0 .896h4.48zM9.856 15.234h3.136a.448.448 0 1 0 0-.896H9.856a.448.448 0 0 0 0 .896z"/>
        <path d="M20.16 20.61c-.247 0-.448.2-.448.448v4.48c0 .248-.2.448-.448.448H1.344a.448.448 0 0 1-.448-.448V1.346c0-.247.2-.448.448-.448h17.92c.247 0 .448.2.448.448V9.76a.448.448 0 0 0 .896 0V1.346c0-.742-.602-1.344-1.344-1.344H1.344C.602.002 0 .604 0 1.346v24.192c0 .743.602 1.344 1.344 1.344h17.92c.742 0 1.344-.601 1.344-1.344v-4.48c0-.247-.2-.448-.448-.448z"/>
    </g>
</svg>
