<svg id="Flat" height="512" viewBox="0 0 512 512" width="512" xmlns="http://www.w3.org/2000/svg"><g><path d="m24 80h464v368h-464z" fill="#ebf7ff"/><g fill="#80daff"><path d="m280 224h32v16h-32z"/><path d="m120 224h144v16h-144z"/><path d="m120 256h32v16h-32z"/><path d="m168 256h112v16h-112z"/><path d="m264 288h16v16h-16z"/><path d="m120 288h128v16h-128z"/><path d="m120 320h80v16h-80z"/><path d="m216 320h72v16h-72z"/><path d="m256 352h48v16h-48z"/><path d="m120 352h120v16h-120z"/><path d="m120 384h56v16h-56z"/><path d="m192 384h136v16h-136z"/></g><path d="m34 40h444a10 10 0 0 1 10 10v54a0 0 0 0 1 0 0h-464a0 0 0 0 1 0 0v-54a10 10 0 0 1 10-10z" fill="#25b1fa"/><path d="m448 64h16v16h-16z" fill="#fafdff"/><path d="m112 64h16v16h-16z" fill="#fafdff"/><path d="m48 64h16v16h-16z" fill="#fafdff"/><path d="m80 64h16v16h-16z" fill="#fafdff"/><path d="m363.352 382.741c-28.382-20.557-47.439-50.287-53.676-83.733l-5.676-35.435 72-31.573 72 31.572-5.743 35.783c-6.279 33.737-25.591 63.667-54.381 84.251l-11.741 8.394z" fill="#80daff"/><path d="m468 472h-424a20 20 0 0 1 -20-20v-28h152l16 16h128l16-16h152v28a20 20 0 0 1 -20 20z" fill="#25b1fa"/><g fill="#80daff"><path d="m64 136h384v64h-384z"/><rect height="32" rx="16" width="32" x="64" y="232"/><rect height="32" rx="16" width="32" x="64" y="296"/><rect height="32" rx="16" width="32" x="64" y="360"/></g></g></svg>