<svg xmlns="http://www.w3.org/2000/svg" width="25" height="32" viewBox="0 0 25 32">
    <path fill="#0C3071" fill-rule="nonzero" d="M24.794 26.97L23.02 6.853a.856.856 0 0 0-.85-.785h-3.65C18.47 2.712 15.747 0 12.4 0S6.33 2.712 6.28 6.068H2.63a.852.852 0 0 0-.85.785L.006 26.97c0 .025-.006.05-.006.076 0 2.29 2.085 4.154 4.65 4.154h15.5c2.565 0 4.65-1.863 4.65-4.154 0-.025 0-.05-.006-.076zM12.4 1.723c2.401 0 4.36 1.94 4.41 4.345H7.99c.05-2.406 2.009-4.345 4.41-4.345zm7.75 27.754H4.65c-1.609 0-2.914-1.072-2.94-2.392L3.41 7.797h2.864v2.616a.855.855 0 1 0 1.71 0V7.797h8.827v2.616a.855.855 0 1 0 1.71 0V7.797h2.865l1.704 19.288c-.025 1.32-1.337 2.392-2.94 2.392z"/>
</svg>
