<?xml version="1.0" encoding="utf-8"?>
<!-- Generator: Adobe Illustrator 23.0.3, SVG Export Plug-In . SVG Version: 6.00 Build 0)  -->
<svg version="1.1" id="Layer_5" xmlns="http://www.w3.org/2000/svg" xmlns:xlink="http://www.w3.org/1999/xlink" x="0px" y="0px"
	 viewBox="0 0 512 512" style="enable-background:new 0 0 512 512;" xml:space="preserve">
<style type="text/css">
	.st0{fill:#0C3071;}
</style>
<g>
	<path class="st0" d="M392,280v17.2c-9.2,2.9-16,11.5-16,21.7c0,8.7,4.8,16.5,12.6,20.4l15.6,7.8c2.3,1.2,3.8,3.5,3.8,6.1
		c0,3.8-3.1,6.8-6.8,6.8h-2.3c-3.8,0-6.8-3.1-6.8-6.8V344h-16v9.2c0,10.2,6.8,18.8,16,21.7V392h16v-17.2c9.2-2.9,16-11.5,16-21.7
		c0-8.7-4.8-16.5-12.6-20.4l-15.6-7.8c-2.3-1.2-3.8-3.5-3.8-6.1c0-3.8,3.1-6.8,6.8-6.8h2.3c3.8,0,6.8,3.1,6.8,6.8v1.2h16v-1.2
		c0-10.2-6.8-18.8-16-21.7V280H392z"/>
	<path class="st0" d="M400,8c-20.3,0-39.2,5.9-55.2,16H102.6c-6.4,0-12.4,2.5-17,7L15,101.7c-4.5,4.5-7,10.6-7,17V480
		c0,13.2,10.8,24,24,24h352c13.2,0,24-10.8,24-24v-56.4c44.8-4.1,80-41.8,80-87.6c0-40.2-27.1-74.1-64-84.6V128c8.8,0,16,7.2,16,16
		h16c0-8.8,7.2-16,16-16s16,7.2,16,16h16v-32C504,54.7,457.3,8,400,8z M344.8,116.9c-4.9-3.1-10.6-4.9-16.8-4.9
		c-5.8,0-11.3,1.6-16,4.3V112c0-40.7,27.9-75,65.5-85C364.4,43.4,348.5,72,344.8,116.9L344.8,116.9z M88,51.3V104H35.3L88,51.3z
		 M384,488H32c-4.4,0-8-3.6-8-8V120h80V40h221.1c-18,18.7-29.1,44.1-29.1,72v32h16c0-8.8,7.2-16,16-16s16,7.2,16,16h16
		c0-8.8,7.2-16,16-16v123.4c-36.9,10.5-64,44.4-64,84.6c0,45.8,35.2,83.5,80,87.6V480C392,484.4,388.4,488,384,488z M472,336
		c0,39.7-32.3,72-72,72s-72-32.3-72-72s32.3-72,72-72S472,296.3,472,336z M400,248c-2.7,0-5.4,0.2-8,0.4V144h16v104.4
		C405.4,248.2,402.7,248,400,248L400,248z M424,112c-9.6,0-18.1,4.3-24,11.1c-5.9-6.7-14.4-11.1-24-11.1c-5.4,0-10.5,1.5-15,3.9
		c5-53.8,28.9-80.6,39-89.7c10.1,9,34,35.9,39,89.7C434.5,113.5,429.4,112,424,112z M488,116.3c-4.7-2.7-10.2-4.3-16-4.3
		c-6.2,0-11.9,1.8-16.8,4.9C451.5,72,435.6,43.4,422.5,27c37.7,10,65.5,44.2,65.5,85V116.3z"/>
	<path class="st0" d="M198.7,296h-17.8c-17.3,0-34-5.1-48.4-14.7l-4.4-3l-4.4,3c-14.4,9.6-31.1,14.7-48.4,14.7H57.3l-1.2,6.6
		C55.5,306.2,40,391.6,40,416c0,17.6,23.3,35.3,69.1,52.6c6,2.3,12.3,3.4,18.9,3.4c6.5,0,12.9-1.2,18.9-3.4
		c45.9-17.3,69.1-35,69.1-52.6c0-24.4-15.5-109.8-16.1-113.4L198.7,296z M141.2,453.6c-1.7,0.6-3.4,1-5.2,1.4v-95h-16v95
		c-1.8-0.4-3.5-0.8-5.2-1.4C74.4,438.4,56,423.4,56,416c0-19.3,11-83.2,14.7-104h4.5c15.6,0,30.9-3.6,44.8-10.3V344h16v-42.3
		c13.9,6.7,29.2,10.3,44.8,10.3h4.5c3.7,20.8,14.7,84.7,14.7,104C200,423.4,181.6,438.4,141.2,453.6L141.2,453.6z"/>
	<path class="st0" d="M280,56H120v64h160V56z M264,104H136V72h128V104z"/>
	<path class="st0" d="M40,136h16v16H40V136z"/>
	<path class="st0" d="M72,136h208v16H72V136z"/>
	<path class="st0" d="M40,168h240v16H40V168z"/>
	<path class="st0" d="M40,200h240v16H40V200z"/>
	<path class="st0" d="M264,232h16v16h-16V232z"/>
	<path class="st0" d="M40,232h208v16H40V232z"/>
	<path class="st0" d="M360,168h-64v80h64V168z M344,232h-32v-48h32V232z"/>
	<path class="st0" d="M232,392h80v16h-80V392z"/>
	<path class="st0" d="M232,424h80v16h-80V424z"/>
	<path class="st0" d="M232,456h16v16h-16V456z"/>
	<path class="st0" d="M264,456h16v16h-16V456z"/>
	<path class="st0" d="M296,456h16v16h-16V456z"/>
</g>
</svg>
