<svg xmlns="http://www.w3.org/2000/svg" width="29" height="29" viewBox="0 0 29 29">
    <g fill="none" fill-rule="evenodd">
        <circle cx="14.08" cy="14.08" r="13.44" fill="#FFF" stroke="#ECEBED" stroke-width="1.28"/>
        <path fill="#7AC4EA" fill-rule="nonzero" d="M22.514 12.701c.343-.334.464-.825.316-1.28a1.242 1.242 0 0 0-1.01-.851l-4.218-.613a.551.551 0 0 1-.415-.302l-1.886-3.822a1.242 1.242 0 0 0-1.12-.697c-.48 0-.91.267-1.12.697l-1.887 3.822a.552.552 0 0 1-.416.302l-4.218.613c-.475.069-.861.395-1.01.85-.147.457-.026.947.317 1.282l3.052 2.975c.13.127.19.31.16.488l-.72 4.201c-.065.37.032.73.272 1.014a1.263 1.263 0 0 0 1.54.303l3.773-1.983a.565.565 0 0 1 .513 0l3.773 1.983c.184.097.38.146.582.146a1.253 1.253 0 0 0 1.23-1.463l-.72-4.2a.552.552 0 0 1 .16-.49l3.052-2.975z"/>
    </g>
</svg>
