<svg xmlns="http://www.w3.org/2000/svg" width="33" height="41" viewBox="0 0 33 41">
    <g fill="#0C3071" fill-rule="nonzero" stroke="#0C3071" stroke-width=".4">
        <path d="M1.438 17.217a.48.48 0 0 0 .526-.354c.108-.413.495-1.591.978-2.115a3.434 3.434 0 0 1 2.375-.961h.016a3.344 3.344 0 0 1 2.352.958c.616.638.962 1.49.965 2.377a.48.48 0 1 0 .96 0 3.285 3.285 0 0 1 3.354-3.335 3.344 3.344 0 0 1 2.35.958c.618.638.964 1.49.966 2.377v4.364a.48.48 0 0 0 .96 0v-4.364a3.285 3.285 0 0 1 3.337-3.335h.016a3.344 3.344 0 0 1 2.352.958c.616.638.962 1.49.965 2.377a.48.48 0 1 0 .96 0 3.285 3.285 0 0 1 3.337-3.335 3.34 3.34 0 0 1 2.368.958c.483.52.872 1.704.98 2.118a.48.48 0 0 0 .945-.122v-.02C32.495 8.05 25.44 1 16.77 1h-.03C8.052 1.006 1.014 8.053 1.02 16.741c0 .241.18.445.418.476zM6.3 6.293A14.673 14.673 0 0 1 16.74 1.96h.03c7.255 0 13.307 5.26 14.54 12.167a1.818 1.818 0 0 0-.042-.047l-.013-.013a4.29 4.29 0 0 0-3.05-1.24 4.378 4.378 0 0 0-3.062 1.253c-.299.315-.552.67-.753 1.056-.2-.385-.454-.74-.752-1.056l-.014-.014a4.297 4.297 0 0 0-3.028-1.24h-.021a4.377 4.377 0 0 0-3.062 1.254 4.66 4.66 0 0 0-.753 1.056 4.664 4.664 0 0 0-.766-1.07 4.29 4.29 0 0 0-3.049-1.24 4.378 4.378 0 0 0-3.063 1.254c-.298.315-.552.67-.752 1.056a4.664 4.664 0 0 0-.766-1.07 4.292 4.292 0 0 0-3.05-1.24 4.378 4.378 0 0 0-3.062 1.254l-.046.05A14.663 14.663 0 0 1 6.3 6.293zM6.63 26.94v3.683c0 .265.216.48.48.48l1.095-.001.487 8.805a.48.48 0 0 0 .48.453h4.597a.48.48 0 0 0 .48-.455l.245-4.761h.285l.464 4.783a.48.48 0 0 0 .478.433h2.395a.48.48 0 0 0 .478-.437l.423-4.665.29 4.652a.48.48 0 0 0 .478.45h4.598a.48.48 0 0 0 .479-.453l.454-8.102 1.095-.001a.48.48 0 0 0 .48-.48l-.001-2.975a3.385 3.385 0 0 0-3.384-3.376h-.002l-2.88.002a3.39 3.39 0 0 0-1.888.58 2.09 2.09 0 0 0-1.834-1.09H16.9c-.471 0-.93.16-1.298.454a3.384 3.384 0 0 0-2.71-1.362h-.002l-2.88.003a3.39 3.39 0 0 0-3.38 3.38zm11.96 7.24a.48.48 0 0 0-.479.436l-.433 4.784h-1.521l-.464-4.783a.48.48 0 0 0-.478-.434h-1.049l-.001-1.566a2.393 2.393 0 0 1 2.386-2.384l.697-.002h.002a2.387 2.387 0 0 1 2.387 2.38l.001 1.567-1.049.001zM16.9 25.424c.623 0 1.128.503 1.13 1.125a1.127 1.127 0 0 1-1.129 1.126 1.126 1.126 0 1 1-.001-2.251zm-6.89-.906l2.88-.002h.001a2.428 2.428 0 0 1 2.094 1.204 2.087 2.087 0 0 0 1.916 2.915h.002a2.086 2.086 0 0 0 2.086-2.061 2.395 2.395 0 0 1 1.635-.64l2.88-.003h.001a2.424 2.424 0 0 1 2.424 2.417l.001 2.495-1.068.001a.48.48 0 0 0-.48.453L23.93 39.4h-3.693l-.265-4.262h.148a.48.48 0 0 0 .48-.48l-.002-2.047a3.348 3.348 0 0 0-3.348-3.34h-.002l-.698.003a3.353 3.353 0 0 0-3.344 3.344l.001 2.047c0 .206.133.389.328.454l-.22 4.281H9.625l-.487-8.805a.48.48 0 0 0-.48-.454l-1.068.001-.002-3.203a2.43 2.43 0 0 1 2.422-2.42z"/>
        <path d="M11.437 22.658a2.654 2.654 0 0 0-.002-5.307h-.002a2.654 2.654 0 0 0 .002 5.307h.002zm-1.7-2.652a1.698 1.698 0 0 1 1.697-1.695h.001a1.694 1.694 0 0 1 .002 3.387h-.002a1.698 1.698 0 0 1-1.697-1.692zM22.05 24.073c.993 0 1.902-.553 2.36-1.433h.288a1.612 1.612 0 1 0 0-3.224h-.909c-.482-.42-1.1-.65-1.74-.65h-.002a2.654 2.654 0 1 0 .002 5.307h.002zm3.3-3.045c0 .36-.292.652-.652.652h-.004a2.635 2.635 0 0 0-.202-1.304h.206c.36 0 .651.292.652.652zm-4.999.393c0-.937.76-1.696 1.697-1.695h.001a1.694 1.694 0 1 1 .001 3.387 1.696 1.696 0 0 1-1.698-1.692z"/>
    </g>
</svg>
