<?xml version="1.0" encoding="UTF-8" standalone="no"?>
<!DOCTYPE svg PUBLIC "-//W3C//DTD SVG 1.1//EN"
 "http://www.w3.org/Graphics/SVG/1.1/DTD/svg11.dtd">
<!-- Generated by graphviz version 2.40.1 (20161225.0304)
 -->
<!-- Title: dependencies Pages: 1 -->
<svg width="617pt" height="284pt"
 viewBox="0.00 0.00 617.00 284.00" xmlns="http://www.w3.org/2000/svg" xmlns:xlink="http://www.w3.org/1999/xlink">
<g id="graph0" class="graph" transform="scale(1 1) rotate(0) translate(4 280)">
<title>dependencies</title>
<polygon fill="#ffffff" stroke="transparent" points="-4,4 -4,-280 613,-280 613,4 -4,4"/>
<text text-anchor="start" x="283.5091" y="-42.4" font-family="sans-serif" font-weight="bold" font-size="14.00" fill="#000000">Legend</text>
<polygon fill="#ffffb3" stroke="transparent" points="70.5,-10 70.5,-30 90.5,-30 90.5,-10 70.5,-10"/>
<text text-anchor="start" x="94.129" y="-15.4" font-family="sans-serif" font-size="14.00" fill="#000000"> &#160;Declarations</text>
<polygon fill="#8dd3c7" stroke="transparent" points="183.5,-10 183.5,-30 203.5,-30 203.5,-10 183.5,-10"/>
<text text-anchor="start" x="207.2251" y="-15.4" font-family="sans-serif" font-size="14.00" fill="#000000"> &#160;Module</text>
<polygon fill="#80b1d3" stroke="transparent" points="269.5,-10 269.5,-30 289.5,-30 289.5,-10 269.5,-10"/>
<text text-anchor="start" x="293.2812" y="-15.4" font-family="sans-serif" font-size="14.00" fill="#000000"> &#160;Bootstrap</text>
<polygon fill="#fdb462" stroke="transparent" points="366.5,-10 366.5,-30 386.5,-30 386.5,-10 366.5,-10"/>
<text text-anchor="start" x="390.1732" y="-15.4" font-family="sans-serif" font-size="14.00" fill="#000000"> &#160;Providers</text>
<polygon fill="#fb8072" stroke="transparent" points="462.5,-10 462.5,-30 482.5,-30 482.5,-10 462.5,-10"/>
<text text-anchor="start" x="486.2258" y="-15.4" font-family="sans-serif" font-size="14.00" fill="#000000"> &#160;Exports</text>
<g id="clust1" class="cluster">
<title>cluster_UiComponentsModule</title>
<polygon fill="none" stroke="#000000" stroke-dasharray="1,5" points="8,-70 8,-268 601,-268 601,-70 8,-70"/>
</g>
<g id="clust2" class="cluster">
<title>cluster_UiComponentsModule_declarations</title>
<polygon fill="none" stroke="#000000" points="22,-78 22,-130 588,-130 588,-78 22,-78"/>
</g>
<g id="clust7" class="cluster">
<title>cluster_UiComponentsModule_exports</title>
<polygon fill="none" stroke="#000000" points="16,-208 16,-260 593,-260 593,-208 16,-208"/>
</g>
<!-- FiltersToolbarComponent -->
<g id="node1" class="node">
<title>FiltersToolbarComponent</title>
<polygon fill="#ffffb3" stroke="#000000" points="579.9256,-122 418.0744,-122 418.0744,-86 579.9256,-86 579.9256,-122"/>
<text text-anchor="middle" x="499" y="-99.8" font-family="Times,serif" font-size="14.00" fill="#000000">FiltersToolbarComponent</text>
</g>
<!-- UiComponentsModule -->
<g id="node4" class="node">
<title>UiComponentsModule</title>
<polygon fill="#8dd3c7" stroke="#000000" points="392.3244,-187 389.3244,-191 368.3244,-191 365.3244,-187 247.6756,-187 247.6756,-151 392.3244,-151 392.3244,-187"/>
<text text-anchor="middle" x="320" y="-164.8" font-family="Times,serif" font-size="14.00" fill="#000000">UiComponentsModule</text>
</g>
<!-- FiltersToolbarComponent&#45;&gt;UiComponentsModule -->
<g id="edge1" class="edge">
<title>FiltersToolbarComponent&#45;&gt;UiComponentsModule</title>
<path fill="none" stroke="#000000" d="M526.6542,-122.0225C526.6542,-139.3734 526.6542,-163 526.6542,-163 526.6542,-163 402.2776,-163 402.2776,-163"/>
<polygon fill="#000000" stroke="#000000" points="402.2776,-159.5001 392.2776,-163 402.2776,-166.5001 402.2776,-159.5001"/>
</g>
<!-- MaterialTableComponent -->
<g id="node2" class="node">
<title>MaterialTableComponent</title>
<polygon fill="#ffffb3" stroke="#000000" points="400.126,-122 239.874,-122 239.874,-86 400.126,-86 400.126,-122"/>
<text text-anchor="middle" x="320" y="-99.8" font-family="Times,serif" font-size="14.00" fill="#000000">MaterialTableComponent</text>
</g>
<!-- MaterialTableComponent&#45;&gt;UiComponentsModule -->
<g id="edge2" class="edge">
<title>MaterialTableComponent&#45;&gt;UiComponentsModule</title>
<path fill="none" stroke="#000000" d="M320,-122.1061C320,-122.1061 320,-140.991 320,-140.991"/>
<polygon fill="#000000" stroke="#000000" points="316.5001,-140.9909 320,-150.991 323.5001,-140.991 316.5001,-140.9909"/>
</g>
<!-- ToogleColumnsBtnComponent -->
<g id="node3" class="node">
<title>ToogleColumnsBtnComponent</title>
<polygon fill="#ffffb3" stroke="#000000" points="221.7799,-122 30.2201,-122 30.2201,-86 221.7799,-86 221.7799,-122"/>
<text text-anchor="middle" x="126" y="-99.8" font-family="Times,serif" font-size="14.00" fill="#000000">ToogleColumnsBtnComponent</text>
</g>
<!-- ToogleColumnsBtnComponent&#45;&gt;UiComponentsModule -->
<g id="edge3" class="edge">
<title>ToogleColumnsBtnComponent&#45;&gt;UiComponentsModule</title>
<path fill="none" stroke="#000000" d="M156.4633,-122.0225C156.4633,-139.3734 156.4633,-163 156.4633,-163 156.4633,-163 237.7944,-163 237.7944,-163"/>
<polygon fill="#000000" stroke="#000000" points="237.7944,-166.5001 247.7944,-163 237.7943,-159.5001 237.7944,-166.5001"/>
</g>
<!-- FiltersToolbarComponent  -->
<g id="node5" class="node">
<title>FiltersToolbarComponent </title>
<polygon fill="#fb8072" stroke="#000000" points="585.425,-252 420.575,-252 420.575,-216 585.425,-216 585.425,-252"/>
<text text-anchor="middle" x="503" y="-229.8" font-family="Times,serif" font-size="14.00" fill="#000000">FiltersToolbarComponent </text>
</g>
<!-- UiComponentsModule&#45;&gt;FiltersToolbarComponent  -->
<g id="edge4" class="edge">
<title>UiComponentsModule&#45;&gt;FiltersToolbarComponent </title>
<path fill="none" stroke="#000000" stroke-dasharray="5,2" d="M392.3003,-175C432.1384,-175 473.5958,-175 473.5958,-175 473.5958,-175 473.5958,-205.9775 473.5958,-205.9775"/>
<polygon fill="#000000" stroke="#000000" points="470.0959,-205.9774 473.5958,-215.9775 477.0959,-205.9775 470.0959,-205.9774"/>
</g>
<!-- MaterialTableComponent  -->
<g id="node6" class="node">
<title>MaterialTableComponent </title>
<polygon fill="#fb8072" stroke="#000000" points="402.1256,-252 237.8744,-252 237.8744,-216 402.1256,-216 402.1256,-252"/>
<text text-anchor="middle" x="320" y="-229.8" font-family="Times,serif" font-size="14.00" fill="#000000">MaterialTableComponent </text>
</g>
<!-- UiComponentsModule&#45;&gt;MaterialTableComponent  -->
<g id="edge5" class="edge">
<title>UiComponentsModule&#45;&gt;MaterialTableComponent </title>
<path fill="none" stroke="#000000" stroke-dasharray="5,2" d="M320,-187.1061C320,-187.1061 320,-205.991 320,-205.991"/>
<polygon fill="#000000" stroke="#000000" points="316.5001,-205.9909 320,-215.991 323.5001,-205.991 316.5001,-205.9909"/>
</g>
<!-- ToogleColumnsBtnComponent  -->
<g id="node7" class="node">
<title>ToogleColumnsBtnComponent </title>
<polygon fill="#fb8072" stroke="#000000" points="219.78,-252 24.22,-252 24.22,-216 219.78,-216 219.78,-252"/>
<text text-anchor="middle" x="122" y="-229.8" font-family="Times,serif" font-size="14.00" fill="#000000">ToogleColumnsBtnComponent </text>
</g>
<!-- UiComponentsModule&#45;&gt;ToogleColumnsBtnComponent  -->
<g id="edge6" class="edge">
<title>UiComponentsModule&#45;&gt;ToogleColumnsBtnComponent </title>
<path fill="none" stroke="#000000" stroke-dasharray="5,2" d="M247.6432,-175C181.2939,-175 93.2867,-175 93.2867,-175 93.2867,-175 93.2867,-205.9775 93.2867,-205.9775"/>
<polygon fill="#000000" stroke="#000000" points="89.7866,-205.9775 93.2867,-215.9775 96.7866,-205.9774 89.7866,-205.9775"/>
</g>
</g>
</svg>
