<?xml version="1.0" encoding="UTF-8" standalone="no"?>
<!DOCTYPE svg PUBLIC "-//W3C//DTD SVG 1.1//EN"
 "http://www.w3.org/Graphics/SVG/1.1/DTD/svg11.dtd">
<!-- Generated by graphviz version 2.40.1 (20161225.0304)
 -->
<!-- Title: dependencies Pages: 1 -->
<svg width="642pt" height="211pt"
 viewBox="0.00 0.00 642.00 211.00" xmlns="http://www.w3.org/2000/svg" xmlns:xlink="http://www.w3.org/1999/xlink">
<g id="graph0" class="graph" transform="scale(1 1) rotate(0) translate(4 207)">
<title>dependencies</title>
<polygon fill="#ffffff" stroke="transparent" points="-4,4 -4,-207 638,-207 638,4 -4,4"/>
<text text-anchor="start" x="296.0091" y="-42.4" font-family="sans-serif" font-weight="bold" font-size="14.00" fill="#000000">Legend</text>
<polygon fill="#ffffb3" stroke="transparent" points="83,-10 83,-30 103,-30 103,-10 83,-10"/>
<text text-anchor="start" x="106.629" y="-15.4" font-family="sans-serif" font-size="14.00" fill="#000000"> &#160;Declarations</text>
<polygon fill="#8dd3c7" stroke="transparent" points="196,-10 196,-30 216,-30 216,-10 196,-10"/>
<text text-anchor="start" x="219.7251" y="-15.4" font-family="sans-serif" font-size="14.00" fill="#000000"> &#160;Module</text>
<polygon fill="#80b1d3" stroke="transparent" points="282,-10 282,-30 302,-30 302,-10 282,-10"/>
<text text-anchor="start" x="305.7812" y="-15.4" font-family="sans-serif" font-size="14.00" fill="#000000"> &#160;Bootstrap</text>
<polygon fill="#fdb462" stroke="transparent" points="379,-10 379,-30 399,-30 399,-10 379,-10"/>
<text text-anchor="start" x="402.6732" y="-15.4" font-family="sans-serif" font-size="14.00" fill="#000000"> &#160;Providers</text>
<polygon fill="#fb8072" stroke="transparent" points="475,-10 475,-30 495,-30 495,-10 475,-10"/>
<text text-anchor="start" x="498.7258" y="-15.4" font-family="sans-serif" font-size="14.00" fill="#000000"> &#160;Exports</text>
<g id="clust1" class="cluster">
<title>cluster_AnuladosIncobrablesModule</title>
<polygon fill="none" stroke="#000000" stroke-dasharray="1,5" points="8,-70 8,-195 626,-195 626,-70 8,-70"/>
</g>
<g id="clust2" class="cluster">
<title>cluster_AnuladosIncobrablesModule_declarations</title>
<polygon fill="none" stroke="#000000" points="380,-78 380,-130 618,-130 618,-78 380,-78"/>
</g>
<g id="clust4" class="cluster">
<title>cluster_AnuladosIncobrablesModule_imports</title>
<polygon fill="none" stroke="#000000" points="16,-78 16,-130 372,-130 372,-78 16,-78"/>
</g>
<!-- AnuladosIncobrablesListComponent -->
<g id="node1" class="node">
<title>AnuladosIncobrablesListComponent</title>
<polygon fill="#ffffb3" stroke="#000000" points="610.0674,-122 387.9326,-122 387.9326,-86 610.0674,-86 610.0674,-122"/>
<text text-anchor="middle" x="499" y="-99.8" font-family="Times,serif" font-size="14.00" fill="#000000">AnuladosIncobrablesListComponent</text>
</g>
<!-- AnuladosIncobrablesModule -->
<g id="node2" class="node">
<title>AnuladosIncobrablesModule</title>
<polygon fill="#8dd3c7" stroke="#000000" points="341.0071,-187 338.0071,-191 317.0071,-191 314.0071,-187 162.9929,-187 162.9929,-151 341.0071,-151 341.0071,-187"/>
<text text-anchor="middle" x="252" y="-164.8" font-family="Times,serif" font-size="14.00" fill="#000000">AnuladosIncobrablesModule</text>
</g>
<!-- AnuladosIncobrablesListComponent&#45;&gt;AnuladosIncobrablesModule -->
<g id="edge1" class="edge">
<title>AnuladosIncobrablesListComponent&#45;&gt;AnuladosIncobrablesModule</title>
<path fill="none" stroke="#000000" d="M499,-122.1061C499,-141.3391 499,-169 499,-169 499,-169 351.1727,-169 351.1727,-169"/>
<polygon fill="#000000" stroke="#000000" points="351.1727,-165.5001 341.1727,-169 351.1726,-172.5001 351.1727,-165.5001"/>
</g>
<!-- AnuladosIncobrablesRoutingModule -->
<g id="node3" class="node">
<title>AnuladosIncobrablesRoutingModule</title>
<polygon fill="#8dd3c7" stroke="#000000" points="363.6245,-122 360.6245,-126 339.6245,-126 336.6245,-122 140.3755,-122 140.3755,-86 363.6245,-86 363.6245,-122"/>
<text text-anchor="middle" x="252" y="-99.8" font-family="Times,serif" font-size="14.00" fill="#000000">AnuladosIncobrablesRoutingModule</text>
</g>
<!-- AnuladosIncobrablesRoutingModule&#45;&gt;AnuladosIncobrablesModule -->
<g id="edge2" class="edge">
<title>AnuladosIncobrablesRoutingModule&#45;&gt;AnuladosIncobrablesModule</title>
<path fill="none" stroke="#000000" d="M252,-122.1061C252,-122.1061 252,-140.991 252,-140.991"/>
<polygon fill="#000000" stroke="#000000" points="248.5001,-140.9909 252,-150.991 255.5001,-140.991 248.5001,-140.9909"/>
</g>
<!-- SharedModule -->
<g id="node4" class="node">
<title>SharedModule</title>
<polygon fill="#8dd3c7" stroke="#000000" points="122.4231,-122 119.4231,-126 98.4231,-126 95.4231,-122 23.5769,-122 23.5769,-86 122.4231,-86 122.4231,-122"/>
<text text-anchor="middle" x="73" y="-99.8" font-family="Times,serif" font-size="14.00" fill="#000000">SharedModule</text>
</g>
<!-- SharedModule&#45;&gt;AnuladosIncobrablesModule -->
<g id="edge3" class="edge">
<title>SharedModule&#45;&gt;AnuladosIncobrablesModule</title>
<path fill="none" stroke="#000000" d="M73,-122.1061C73,-141.3391 73,-169 73,-169 73,-169 152.7622,-169 152.7622,-169"/>
<polygon fill="#000000" stroke="#000000" points="152.7622,-172.5001 162.7622,-169 152.7622,-165.5001 152.7622,-172.5001"/>
</g>
</g>
</svg>
