<?xml version="1.0" encoding="UTF-8" standalone="no"?>
<!DOCTYPE svg PUBLIC "-//W3C//DTD SVG 1.1//EN"
 "http://www.w3.org/Graphics/SVG/1.1/DTD/svg11.dtd">
<!-- Generated by graphviz version 2.40.1 (20161225.0304)
 -->
<!-- Title: dependencies Pages: 1 -->
<svg width="618pt" height="211pt"
 viewBox="0.00 0.00 618.00 211.00" xmlns="http://www.w3.org/2000/svg" xmlns:xlink="http://www.w3.org/1999/xlink">
<g id="graph0" class="graph" transform="scale(1 1) rotate(0) translate(4 207)">
<title>dependencies</title>
<polygon fill="#ffffff" stroke="transparent" points="-4,4 -4,-207 614,-207 614,4 -4,4"/>
<text text-anchor="start" x="284.0091" y="-42.4" font-family="sans-serif" font-weight="bold" font-size="14.00" fill="#000000">Legend</text>
<polygon fill="#ffffb3" stroke="transparent" points="71,-10 71,-30 91,-30 91,-10 71,-10"/>
<text text-anchor="start" x="94.629" y="-15.4" font-family="sans-serif" font-size="14.00" fill="#000000"> &#160;Declarations</text>
<polygon fill="#8dd3c7" stroke="transparent" points="184,-10 184,-30 204,-30 204,-10 184,-10"/>
<text text-anchor="start" x="207.7251" y="-15.4" font-family="sans-serif" font-size="14.00" fill="#000000"> &#160;Module</text>
<polygon fill="#80b1d3" stroke="transparent" points="270,-10 270,-30 290,-30 290,-10 270,-10"/>
<text text-anchor="start" x="293.7812" y="-15.4" font-family="sans-serif" font-size="14.00" fill="#000000"> &#160;Bootstrap</text>
<polygon fill="#fdb462" stroke="transparent" points="367,-10 367,-30 387,-30 387,-10 367,-10"/>
<text text-anchor="start" x="390.6732" y="-15.4" font-family="sans-serif" font-size="14.00" fill="#000000"> &#160;Providers</text>
<polygon fill="#fb8072" stroke="transparent" points="463,-10 463,-30 483,-30 483,-10 463,-10"/>
<text text-anchor="start" x="486.7258" y="-15.4" font-family="sans-serif" font-size="14.00" fill="#000000"> &#160;Exports</text>
<g id="clust1" class="cluster">
<title>cluster_RetencionesCtaCteModule</title>
<polygon fill="none" stroke="#000000" stroke-dasharray="1,5" points="8,-70 8,-195 602,-195 602,-70 8,-70"/>
</g>
<g id="clust2" class="cluster">
<title>cluster_RetencionesCtaCteModule_declarations</title>
<polygon fill="none" stroke="#000000" points="368,-78 368,-130 594,-130 594,-78 368,-78"/>
</g>
<g id="clust4" class="cluster">
<title>cluster_RetencionesCtaCteModule_imports</title>
<polygon fill="none" stroke="#000000" points="16,-78 16,-130 360,-130 360,-78 16,-78"/>
</g>
<!-- RetencionesCtaCteListComponent -->
<g id="node1" class="node">
<title>RetencionesCtaCteListComponent</title>
<polygon fill="#ffffb3" stroke="#000000" points="586.4156,-122 375.5844,-122 375.5844,-86 586.4156,-86 586.4156,-122"/>
<text text-anchor="middle" x="481" y="-99.8" font-family="Times,serif" font-size="14.00" fill="#000000">RetencionesCtaCteListComponent</text>
</g>
<!-- RetencionesCtaCteModule -->
<g id="node2" class="node">
<title>RetencionesCtaCteModule</title>
<polygon fill="#8dd3c7" stroke="#000000" points="329.3543,-187 326.3543,-191 305.3543,-191 302.3543,-187 162.6457,-187 162.6457,-151 329.3543,-151 329.3543,-187"/>
<text text-anchor="middle" x="246" y="-164.8" font-family="Times,serif" font-size="14.00" fill="#000000">RetencionesCtaCteModule</text>
</g>
<!-- RetencionesCtaCteListComponent&#45;&gt;RetencionesCtaCteModule -->
<g id="edge1" class="edge">
<title>RetencionesCtaCteListComponent&#45;&gt;RetencionesCtaCteModule</title>
<path fill="none" stroke="#000000" d="M481,-122.1061C481,-141.3391 481,-169 481,-169 481,-169 339.5139,-169 339.5139,-169"/>
<polygon fill="#000000" stroke="#000000" points="339.5139,-165.5001 329.5139,-169 339.5139,-172.5001 339.5139,-165.5001"/>
</g>
<!-- RetencionesCtaCteRoutingModule -->
<g id="node3" class="node">
<title>RetencionesCtaCteRoutingModule</title>
<polygon fill="#8dd3c7" stroke="#000000" points="351.972,-122 348.972,-126 327.972,-126 324.972,-122 140.028,-122 140.028,-86 351.972,-86 351.972,-122"/>
<text text-anchor="middle" x="246" y="-99.8" font-family="Times,serif" font-size="14.00" fill="#000000">RetencionesCtaCteRoutingModule</text>
</g>
<!-- RetencionesCtaCteRoutingModule&#45;&gt;RetencionesCtaCteModule -->
<g id="edge2" class="edge">
<title>RetencionesCtaCteRoutingModule&#45;&gt;RetencionesCtaCteModule</title>
<path fill="none" stroke="#000000" d="M246,-122.1061C246,-122.1061 246,-140.991 246,-140.991"/>
<polygon fill="#000000" stroke="#000000" points="242.5001,-140.9909 246,-150.991 249.5001,-140.991 242.5001,-140.9909"/>
</g>
<!-- SharedModule -->
<g id="node4" class="node">
<title>SharedModule</title>
<polygon fill="#8dd3c7" stroke="#000000" points="122.4231,-122 119.4231,-126 98.4231,-126 95.4231,-122 23.5769,-122 23.5769,-86 122.4231,-86 122.4231,-122"/>
<text text-anchor="middle" x="73" y="-99.8" font-family="Times,serif" font-size="14.00" fill="#000000">SharedModule</text>
</g>
<!-- SharedModule&#45;&gt;RetencionesCtaCteModule -->
<g id="edge3" class="edge">
<title>SharedModule&#45;&gt;RetencionesCtaCteModule</title>
<path fill="none" stroke="#000000" d="M73,-122.1061C73,-141.3391 73,-169 73,-169 73,-169 152.5405,-169 152.5405,-169"/>
<polygon fill="#000000" stroke="#000000" points="152.5405,-172.5001 162.5405,-169 152.5404,-165.5001 152.5405,-172.5001"/>
</g>
</g>
</svg>
