<?xml version="1.0" encoding="UTF-8" standalone="no"?>
<!DOCTYPE svg PUBLIC "-//W3C//DTD SVG 1.1//EN"
 "http://www.w3.org/Graphics/SVG/1.1/DTD/svg11.dtd">
<!-- Generated by graphviz version 2.40.1 (20161225.0304)
 -->
<!-- Title: dependencies Pages: 1 -->
<svg width="957pt" height="284pt"
 viewBox="0.00 0.00 957.00 284.00" xmlns="http://www.w3.org/2000/svg" xmlns:xlink="http://www.w3.org/1999/xlink">
<g id="graph0" class="graph" transform="scale(1 1) rotate(0) translate(4 280)">
<title>dependencies</title>
<polygon fill="#ffffff" stroke="transparent" points="-4,4 -4,-280 953,-280 953,4 -4,4"/>
<text text-anchor="start" x="453.5091" y="-42.4" font-family="sans-serif" font-weight="bold" font-size="14.00" fill="#000000">Legend</text>
<polygon fill="#ffffb3" stroke="transparent" points="240.5,-10 240.5,-30 260.5,-30 260.5,-10 240.5,-10"/>
<text text-anchor="start" x="264.129" y="-15.4" font-family="sans-serif" font-size="14.00" fill="#000000"> &#160;Declarations</text>
<polygon fill="#8dd3c7" stroke="transparent" points="353.5,-10 353.5,-30 373.5,-30 373.5,-10 353.5,-10"/>
<text text-anchor="start" x="377.2251" y="-15.4" font-family="sans-serif" font-size="14.00" fill="#000000"> &#160;Module</text>
<polygon fill="#80b1d3" stroke="transparent" points="439.5,-10 439.5,-30 459.5,-30 459.5,-10 439.5,-10"/>
<text text-anchor="start" x="463.2812" y="-15.4" font-family="sans-serif" font-size="14.00" fill="#000000"> &#160;Bootstrap</text>
<polygon fill="#fdb462" stroke="transparent" points="536.5,-10 536.5,-30 556.5,-30 556.5,-10 536.5,-10"/>
<text text-anchor="start" x="560.1732" y="-15.4" font-family="sans-serif" font-size="14.00" fill="#000000"> &#160;Providers</text>
<polygon fill="#fb8072" stroke="transparent" points="632.5,-10 632.5,-30 652.5,-30 652.5,-10 632.5,-10"/>
<text text-anchor="start" x="656.2258" y="-15.4" font-family="sans-serif" font-size="14.00" fill="#000000"> &#160;Exports</text>
<g id="clust1" class="cluster">
<title>cluster_FormComponentsModule</title>
<polygon fill="none" stroke="#000000" stroke-dasharray="1,5" points="8,-70 8,-268 941,-268 941,-70 8,-70"/>
</g>
<g id="clust2" class="cluster">
<title>cluster_FormComponentsModule_declarations</title>
<polygon fill="none" stroke="#000000" points="25,-78 25,-130 925,-130 925,-78 25,-78"/>
</g>
<g id="clust9" class="cluster">
<title>cluster_FormComponentsModule_exports</title>
<polygon fill="none" stroke="#000000" points="16,-208 16,-260 933,-260 933,-208 16,-208"/>
</g>
<!-- AutocompleteComponent -->
<g id="node1" class="node">
<title>AutocompleteComponent</title>
<polygon fill="#ffffb3" stroke="#000000" points="917.1456,-122 756.8544,-122 756.8544,-86 917.1456,-86 917.1456,-122"/>
<text text-anchor="middle" x="837" y="-99.8" font-family="Times,serif" font-size="14.00" fill="#000000">AutocompleteComponent</text>
</g>
<!-- FormComponentsModule -->
<g id="node6" class="node">
<title>FormComponentsModule</title>
<polygon fill="#8dd3c7" stroke="#000000" points="568.161,-187 565.161,-191 544.161,-191 541.161,-187 407.839,-187 407.839,-151 568.161,-151 568.161,-187"/>
<text text-anchor="middle" x="488" y="-164.8" font-family="Times,serif" font-size="14.00" fill="#000000">FormComponentsModule</text>
</g>
<!-- AutocompleteComponent&#45;&gt;FormComponentsModule -->
<g id="edge1" class="edge">
<title>AutocompleteComponent&#45;&gt;FormComponentsModule</title>
<path fill="none" stroke="#000000" d="M865.1909,-122.2667C865.1909,-140.5552 865.1909,-166 865.1909,-166 865.1909,-166 578.4543,-166 578.4543,-166"/>
<polygon fill="#000000" stroke="#000000" points="578.4543,-162.5001 568.4543,-166 578.4542,-169.5001 578.4543,-162.5001"/>
</g>
<!-- DatepickerComponent -->
<g id="node2" class="node">
<title>DatepickerComponent</title>
<polygon fill="#ffffb3" stroke="#000000" points="738.2394,-122 595.7606,-122 595.7606,-86 738.2394,-86 738.2394,-122"/>
<text text-anchor="middle" x="667" y="-99.8" font-family="Times,serif" font-size="14.00" fill="#000000">DatepickerComponent</text>
</g>
<!-- DatepickerComponent&#45;&gt;FormComponentsModule -->
<g id="edge2" class="edge">
<title>DatepickerComponent&#45;&gt;FormComponentsModule</title>
<path fill="none" stroke="#000000" d="M691.2065,-122.0091C691.2065,-138.0494 691.2065,-159 691.2065,-159 691.2065,-159 578.3126,-159 578.3126,-159"/>
<polygon fill="#000000" stroke="#000000" points="578.3126,-155.5001 568.3126,-159 578.3126,-162.5001 578.3126,-155.5001"/>
</g>
<!-- RangeDatepickerComponent -->
<g id="node3" class="node">
<title>RangeDatepickerComponent</title>
<polygon fill="#ffffb3" stroke="#000000" points="577.0057,-122 398.9943,-122 398.9943,-86 577.0057,-86 577.0057,-122"/>
<text text-anchor="middle" x="488" y="-99.8" font-family="Times,serif" font-size="14.00" fill="#000000">RangeDatepickerComponent</text>
</g>
<!-- RangeDatepickerComponent&#45;&gt;FormComponentsModule -->
<g id="edge3" class="edge">
<title>RangeDatepickerComponent&#45;&gt;FormComponentsModule</title>
<path fill="none" stroke="#000000" d="M488,-122.1061C488,-122.1061 488,-140.991 488,-140.991"/>
<polygon fill="#000000" stroke="#000000" points="484.5001,-140.9909 488,-150.991 491.5001,-140.991 484.5001,-140.9909"/>
</g>
<!-- RangeMonthyearpickerComponent -->
<g id="node4" class="node">
<title>RangeMonthyearpickerComponent</title>
<polygon fill="#ffffb3" stroke="#000000" points="380.5042,-122 167.4958,-122 167.4958,-86 380.5042,-86 380.5042,-122"/>
<text text-anchor="middle" x="274" y="-99.8" font-family="Times,serif" font-size="14.00" fill="#000000">RangeMonthyearpickerComponent</text>
</g>
<!-- RangeMonthyearpickerComponent&#45;&gt;FormComponentsModule -->
<g id="edge4" class="edge">
<title>RangeMonthyearpickerComponent&#45;&gt;FormComponentsModule</title>
<path fill="none" stroke="#000000" d="M308.0839,-122.0091C308.0839,-138.0494 308.0839,-159 308.0839,-159 308.0839,-159 397.7763,-159 397.7763,-159"/>
<polygon fill="#000000" stroke="#000000" points="397.7763,-162.5001 407.7763,-159 397.7763,-155.5001 397.7763,-162.5001"/>
</g>
<!-- SelectComponent -->
<g id="node5" class="node">
<title>SelectComponent</title>
<polygon fill="#ffffb3" stroke="#000000" points="148.5409,-122 33.4591,-122 33.4591,-86 148.5409,-86 148.5409,-122"/>
<text text-anchor="middle" x="91" y="-99.8" font-family="Times,serif" font-size="14.00" fill="#000000">SelectComponent</text>
</g>
<!-- SelectComponent&#45;&gt;FormComponentsModule -->
<g id="edge5" class="edge">
<title>SelectComponent&#45;&gt;FormComponentsModule</title>
<path fill="none" stroke="#000000" d="M106.7567,-122.2667C106.7567,-140.5552 106.7567,-166 106.7567,-166 106.7567,-166 397.6139,-166 397.6139,-166"/>
<polygon fill="#000000" stroke="#000000" points="397.614,-169.5001 407.6139,-166 397.6139,-162.5001 397.614,-169.5001"/>
</g>
<!-- AutocompleteComponent  -->
<g id="node7" class="node">
<title>AutocompleteComponent </title>
<polygon fill="#fb8072" stroke="#000000" points="925.1453,-252 760.8547,-252 760.8547,-216 925.1453,-216 925.1453,-252"/>
<text text-anchor="middle" x="843" y="-229.8" font-family="Times,serif" font-size="14.00" fill="#000000">AutocompleteComponent </text>
</g>
<!-- FormComponentsModule&#45;&gt;AutocompleteComponent  -->
<g id="edge6" class="edge">
<title>FormComponentsModule&#45;&gt;AutocompleteComponent </title>
<path fill="none" stroke="#000000" stroke-dasharray="5,2" d="M568.3517,-173C664.611,-173 813.0591,-173 813.0591,-173 813.0591,-173 813.0591,-205.698 813.0591,-205.698"/>
<polygon fill="#000000" stroke="#000000" points="809.5592,-205.698 813.0591,-215.698 816.5592,-205.698 809.5592,-205.698"/>
</g>
<!-- DatepickerComponent  -->
<g id="node8" class="node">
<title>DatepickerComponent </title>
<polygon fill="#fb8072" stroke="#000000" points="743.2394,-252 596.7606,-252 596.7606,-216 743.2394,-216 743.2394,-252"/>
<text text-anchor="middle" x="670" y="-229.8" font-family="Times,serif" font-size="14.00" fill="#000000">DatepickerComponent </text>
</g>
<!-- FormComponentsModule&#45;&gt;DatepickerComponent  -->
<g id="edge7" class="edge">
<title>FormComponentsModule&#45;&gt;DatepickerComponent </title>
<path fill="none" stroke="#000000" stroke-dasharray="5,2" d="M568.3072,-180C606.5416,-180 644.0435,-180 644.0435,-180 644.0435,-180 644.0435,-205.7181 644.0435,-205.7181"/>
<polygon fill="#000000" stroke="#000000" points="640.5436,-205.718 644.0435,-215.7181 647.5436,-205.7181 640.5436,-205.718"/>
</g>
<!-- RangeDatepickerComponent  -->
<g id="node9" class="node">
<title>RangeDatepickerComponent </title>
<polygon fill="#fb8072" stroke="#000000" points="579.005,-252 396.995,-252 396.995,-216 579.005,-216 579.005,-252"/>
<text text-anchor="middle" x="488" y="-229.8" font-family="Times,serif" font-size="14.00" fill="#000000">RangeDatepickerComponent </text>
</g>
<!-- FormComponentsModule&#45;&gt;RangeDatepickerComponent  -->
<g id="edge8" class="edge">
<title>FormComponentsModule&#45;&gt;RangeDatepickerComponent </title>
<path fill="none" stroke="#000000" stroke-dasharray="5,2" d="M488,-187.1061C488,-187.1061 488,-205.991 488,-205.991"/>
<polygon fill="#000000" stroke="#000000" points="484.5001,-205.9909 488,-215.991 491.5001,-205.991 484.5001,-205.9909"/>
</g>
<!-- RangeMonthyearpickerComponent  -->
<g id="node10" class="node">
<title>RangeMonthyearpickerComponent </title>
<polygon fill="#fb8072" stroke="#000000" points="378.5036,-252 161.4964,-252 161.4964,-216 378.5036,-216 378.5036,-252"/>
<text text-anchor="middle" x="270" y="-229.8" font-family="Times,serif" font-size="14.00" fill="#000000">RangeMonthyearpickerComponent </text>
</g>
<!-- FormComponentsModule&#45;&gt;RangeMonthyearpickerComponent  -->
<g id="edge9" class="edge">
<title>FormComponentsModule&#45;&gt;RangeMonthyearpickerComponent </title>
<path fill="none" stroke="#000000" stroke-dasharray="5,2" d="M407.7598,-180C334.5382,-180 237.6661,-180 237.6661,-180 237.6661,-180 237.6661,-205.7181 237.6661,-205.7181"/>
<polygon fill="#000000" stroke="#000000" points="234.1662,-205.718 237.6661,-215.7181 241.1662,-205.7181 234.1662,-205.718"/>
</g>
<!-- SelectComponent  -->
<g id="node11" class="node">
<title>SelectComponent </title>
<polygon fill="#fb8072" stroke="#000000" points="143.54,-252 24.46,-252 24.46,-216 143.54,-216 143.54,-252"/>
<text text-anchor="middle" x="84" y="-229.8" font-family="Times,serif" font-size="14.00" fill="#000000">SelectComponent </text>
</g>
<!-- FormComponentsModule&#45;&gt;SelectComponent  -->
<g id="edge10" class="edge">
<title>FormComponentsModule&#45;&gt;SelectComponent </title>
<path fill="none" stroke="#000000" stroke-dasharray="5,2" d="M407.4041,-173C285.9362,-173 69.9933,-173 69.9933,-173 69.9933,-173 69.9933,-205.698 69.9933,-205.698"/>
<polygon fill="#000000" stroke="#000000" points="66.4934,-205.698 69.9933,-215.698 73.4934,-205.698 66.4934,-205.698"/>
</g>
</g>
</svg>
