<?xml version="1.0" encoding="UTF-8" standalone="no"?>
<!DOCTYPE svg PUBLIC "-//W3C//DTD SVG 1.1//EN"
 "http://www.w3.org/Graphics/SVG/1.1/DTD/svg11.dtd">
<!-- Generated by graphviz version 2.40.1 (20161225.0304)
 -->
<!-- Title: dependencies Pages: 1 -->
<svg width="504pt" height="211pt"
 viewBox="0.00 0.00 504.00 211.00" xmlns="http://www.w3.org/2000/svg" xmlns:xlink="http://www.w3.org/1999/xlink">
<g id="graph0" class="graph" transform="scale(1 1) rotate(0) translate(4 207)">
<title>dependencies</title>
<polygon fill="#ffffff" stroke="transparent" points="-4,4 -4,-207 500,-207 500,4 -4,4"/>
<text text-anchor="start" x="227.0091" y="-42.4" font-family="sans-serif" font-weight="bold" font-size="14.00" fill="#000000">Legend</text>
<polygon fill="#ffffb3" stroke="transparent" points="14,-10 14,-30 34,-30 34,-10 14,-10"/>
<text text-anchor="start" x="37.629" y="-15.4" font-family="sans-serif" font-size="14.00" fill="#000000"> &#160;Declarations</text>
<polygon fill="#8dd3c7" stroke="transparent" points="127,-10 127,-30 147,-30 147,-10 127,-10"/>
<text text-anchor="start" x="150.7251" y="-15.4" font-family="sans-serif" font-size="14.00" fill="#000000"> &#160;Module</text>
<polygon fill="#80b1d3" stroke="transparent" points="213,-10 213,-30 233,-30 233,-10 213,-10"/>
<text text-anchor="start" x="236.7812" y="-15.4" font-family="sans-serif" font-size="14.00" fill="#000000"> &#160;Bootstrap</text>
<polygon fill="#fdb462" stroke="transparent" points="310,-10 310,-30 330,-30 330,-10 310,-10"/>
<text text-anchor="start" x="333.6732" y="-15.4" font-family="sans-serif" font-size="14.00" fill="#000000"> &#160;Providers</text>
<polygon fill="#fb8072" stroke="transparent" points="406,-10 406,-30 426,-30 426,-10 406,-10"/>
<text text-anchor="start" x="429.7258" y="-15.4" font-family="sans-serif" font-size="14.00" fill="#000000"> &#160;Exports</text>
<g id="clust1" class="cluster">
<title>cluster_TestModule</title>
<polygon fill="none" stroke="#000000" stroke-dasharray="1,5" points="41.5,-70 41.5,-195 454.5,-195 454.5,-70 41.5,-70"/>
</g>
<g id="clust2" class="cluster">
<title>cluster_TestModule_declarations</title>
<polygon fill="none" stroke="#000000" points="318.5,-78 318.5,-130 446.5,-130 446.5,-78 318.5,-78"/>
</g>
<g id="clust4" class="cluster">
<title>cluster_TestModule_imports</title>
<polygon fill="none" stroke="#000000" points="49.5,-78 49.5,-130 310.5,-130 310.5,-78 49.5,-78"/>
</g>
<!-- FormComponent -->
<g id="node1" class="node">
<title>FormComponent</title>
<polygon fill="#ffffb3" stroke="#000000" points="438.1667,-122 326.8333,-122 326.8333,-86 438.1667,-86 438.1667,-122"/>
<text text-anchor="middle" x="382.5" y="-99.8" font-family="Times,serif" font-size="14.00" fill="#000000">FormComponent</text>
</g>
<!-- TestModule -->
<g id="node2" class="node">
<title>TestModule</title>
<polygon fill="#8dd3c7" stroke="#000000" points="295.1529,-187 292.1529,-191 271.1529,-191 268.1529,-187 211.8471,-187 211.8471,-151 295.1529,-151 295.1529,-187"/>
<text text-anchor="middle" x="253.5" y="-164.8" font-family="Times,serif" font-size="14.00" fill="#000000">TestModule</text>
</g>
<!-- FormComponent&#45;&gt;TestModule -->
<g id="edge1" class="edge">
<title>FormComponent&#45;&gt;TestModule</title>
<path fill="none" stroke="#000000" d="M382.5,-122.1061C382.5,-141.3391 382.5,-169 382.5,-169 382.5,-169 305.3826,-169 305.3826,-169"/>
<polygon fill="#000000" stroke="#000000" points="305.3826,-165.5001 295.3826,-169 305.3826,-172.5001 305.3826,-165.5001"/>
</g>
<!-- SharedModule -->
<g id="node3" class="node">
<title>SharedModule</title>
<polygon fill="#8dd3c7" stroke="#000000" points="302.9231,-122 299.9231,-126 278.9231,-126 275.9231,-122 204.0769,-122 204.0769,-86 302.9231,-86 302.9231,-122"/>
<text text-anchor="middle" x="253.5" y="-99.8" font-family="Times,serif" font-size="14.00" fill="#000000">SharedModule</text>
</g>
<!-- SharedModule&#45;&gt;TestModule -->
<g id="edge2" class="edge">
<title>SharedModule&#45;&gt;TestModule</title>
<path fill="none" stroke="#000000" d="M253.5,-122.1061C253.5,-122.1061 253.5,-140.991 253.5,-140.991"/>
<polygon fill="#000000" stroke="#000000" points="250.0001,-140.9909 253.5,-150.991 257.0001,-140.991 250.0001,-140.9909"/>
</g>
<!-- TestRoutingModule -->
<g id="node4" class="node">
<title>TestRoutingModule</title>
<polygon fill="#8dd3c7" stroke="#000000" points="185.7702,-122 182.7702,-126 161.7702,-126 158.7702,-122 57.2298,-122 57.2298,-86 185.7702,-86 185.7702,-122"/>
<text text-anchor="middle" x="121.5" y="-99.8" font-family="Times,serif" font-size="14.00" fill="#000000">TestRoutingModule</text>
</g>
<!-- TestRoutingModule&#45;&gt;TestModule -->
<g id="edge3" class="edge">
<title>TestRoutingModule&#45;&gt;TestModule</title>
<path fill="none" stroke="#000000" d="M121.5,-122.1061C121.5,-141.3391 121.5,-169 121.5,-169 121.5,-169 201.7344,-169 201.7344,-169"/>
<polygon fill="#000000" stroke="#000000" points="201.7344,-172.5001 211.7344,-169 201.7343,-165.5001 201.7344,-172.5001"/>
</g>
</g>
</svg>
